<svg width="33" height="32" viewBox="0 0 33 32" fill="none" xmlns="http://www.w3.org/2000/svg">
<path d="M26.1938 6.54667C24.9332 5.31191 23.4316 4.3329 21.7768 3.66674C20.1219 3.00059 18.3468 2.66062 16.555 2.66667C9.04751 2.66667 2.92876 8.60001 2.92876 15.88C2.92876 18.2133 3.56126 20.48 4.74376 22.48L2.81876 29.3333L10.0375 27.4933C12.0313 28.5467 14.2725 29.1067 16.555 29.1067C24.0625 29.1067 30.1813 23.1733 30.1813 15.8933C30.1813 12.36 28.765 9.04001 26.1938 6.54667ZM16.555 26.8667C14.52 26.8667 12.5263 26.3333 10.78 25.3333L10.3675 25.0933L6.07751 26.1867L7.21876 22.1333L6.94376 21.72C5.81316 19.9693 5.21282 17.9457 5.21126 15.88C5.21126 9.82667 10.2988 4.89334 16.5413 4.89334C19.5663 4.89334 22.4125 6.04001 24.5438 8.12001C25.599 9.13863 26.4353 10.3502 27.0042 11.6846C27.573 13.0189 27.8631 14.4495 27.8575 15.8933C27.885 21.9467 22.7975 26.8667 16.555 26.8667ZM22.77 18.6533C22.4263 18.4933 20.7488 17.6933 20.4463 17.5733C20.13 17.4667 19.91 17.4133 19.6763 17.7333C19.4425 18.0667 18.7963 18.8133 18.6038 19.0267C18.4113 19.2533 18.205 19.28 17.8613 19.1067C17.5175 18.9467 16.4175 18.5867 15.125 17.4667C14.1075 16.5867 13.4338 15.5067 13.2275 15.1733C13.035 14.84 13.2 14.6667 13.3788 14.4933C13.53 14.3467 13.7225 14.1067 13.8875 13.92C14.0525 13.7333 14.1213 13.5867 14.2313 13.3733C14.3413 13.1467 14.2863 12.96 14.2038 12.8C14.1213 12.64 13.4338 11.0133 13.1588 10.3467C12.8838 9.70668 12.595 9.78667 12.3888 9.77334H11.7288C11.495 9.77334 11.1375 9.85334 10.8213 10.1867C10.5188 10.52 9.63876 11.32 9.63876 12.9467C9.63876 14.5733 10.8625 16.1467 11.0275 16.36C11.1925 16.5867 13.4338 19.92 16.8438 21.3467C17.655 21.6933 18.2875 21.8933 18.7825 22.04C19.5938 22.2933 20.3363 22.2533 20.9275 22.1733C21.5875 22.08 22.9488 21.3733 23.2238 20.6C23.5125 19.8267 23.5125 19.1733 23.4163 19.0267C23.32 18.88 23.1138 18.8133 22.77 18.6533Z" fill="white"/>
</svg>
