<svg width="48" height="48" viewBox="0 0 48 48" fill="none" xmlns="http://www.w3.org/2000/svg">
<path d="M9.00832 0.839311C9.30539 0.982148 9.55608 1.20598 9.73152 1.48504C9.90696 1.76409 10 2.08702 9.99999 2.41664C9.99999 4.35331 10.728 5.46864 11.6403 6.82664L11.708 6.92465C12.4827 8.07731 13.5 9.58698 13.5 11.75C13.5 13.9573 12.387 15.9033 10.6907 17.0583C11.1363 17.4316 11.5307 17.8913 11.8713 18.442C12.982 20.2386 13.5 22.985 13.5 26.9283C13.5 30.923 12.9633 35.7203 12.0883 39.5517C11.6543 41.4557 11.1153 43.2126 10.4737 44.531C10.1707 45.1869 9.76943 45.7928 9.28366 46.3276C8.80299 46.82 8.06332 47.345 7.08333 47.345C6.10333 47.345 5.36366 46.82 4.88533 46.3276C4.39815 45.7939 3.99671 45.1878 3.69533 44.531C3.05133 43.2103 2.51233 41.4556 2.07833 39.5493C1.1682 35.4024 0.695062 31.1715 0.666659 26.926C0.666659 22.9826 1.18466 20.2386 2.29533 18.442C2.61218 17.9205 3.01083 17.4533 3.47599 17.0583C2.6098 16.4702 1.90084 15.6789 1.41111 14.7536C0.921382 13.8282 0.665782 12.7969 0.666659 11.75C0.666659 10.8913 0.666659 9.41431 1.56033 7.50798C2.43533 5.64131 4.09899 3.49698 7.15566 1.04931C7.41328 0.843241 7.7239 0.714186 8.05169 0.67703C8.37949 0.639874 8.71112 0.69613 9.00832 0.839311ZM19.3333 30.8063C18.0971 30.599 16.8947 30.2254 15.7587 29.6956C15.8077 28.7483 15.8333 27.8196 15.8333 26.9283C15.8333 25.981 15.8053 25.0756 15.7447 24.2123C16.7783 25.064 17.9987 25.6963 19.3333 26.0393V20.5C19.3333 19.5717 19.7021 18.6815 20.3584 18.0251C21.0148 17.3687 21.9051 17 22.8333 17H31C31.0002 15.2196 30.4912 13.4764 29.5331 11.9758C28.575 10.4753 27.2076 9.28013 25.5925 8.53128C23.9773 7.78243 22.1816 7.51117 20.4173 7.74949C18.653 7.9878 16.9936 8.72577 15.635 9.87631C15.2313 7.97698 14.2933 6.58631 13.6937 5.69731L13.6003 5.55731C15.6967 4.07949 18.1588 3.20598 20.7179 3.03215C23.2769 2.85832 25.8345 3.39085 28.1115 4.5716C30.3885 5.75235 32.2973 7.53594 33.6297 9.72768C34.962 11.9194 35.6667 14.4351 35.6667 17H43.8333C44.7616 17 45.6518 17.3687 46.3082 18.0251C46.9646 18.6815 47.3333 19.5717 47.3333 20.5V41.5C47.3333 42.4282 46.9646 43.3185 46.3082 43.9749C45.6518 44.6312 44.7616 45 43.8333 45H22.8333C21.9051 45 21.0148 44.6312 20.3584 43.9749C19.7021 43.3185 19.3333 42.4282 19.3333 41.5V30.8063ZM24 30.8063V40.3333H42.6667V21.6666H34.871C34.0369 24.0205 32.5892 26.1088 30.6776 27.7156C28.766 29.3224 26.4598 30.3894 23.9977 30.8063H24ZM29.7517 21.6666H24V26.0393C25.2008 25.7283 26.3277 25.1816 27.3151 24.4309C28.3026 23.6802 29.1308 22.7405 29.7517 21.6666Z" fill="white"/>
</svg>
