<svg width="41" height="40" viewBox="0 0 41 40" fill="none" xmlns="http://www.w3.org/2000/svg">
<path d="M20.7715 40C18.0382 40 15.4548 39.4747 13.0215 38.424C10.5882 37.3733 8.46282 35.94 6.64549 34.124C4.82949 32.308 3.39615 30.1833 2.34549 27.75C1.29482 25.3167 0.770154 22.7333 0.771487 20C0.771487 17.2333 1.29682 14.6413 2.34749 12.224C3.39815 9.80667 4.83149 7.69067 6.64749 5.876C8.46349 4.05867 10.5875 2.62533 13.0195 1.576C15.4515 0.526667 18.0355 0.00133333 20.7715 0C23.5382 0 26.1302 0.525334 28.5475 1.576C30.9648 2.62667 33.0808 4.06 34.8955 5.876C36.7128 7.692 38.1462 9.80867 39.1955 12.226C40.2448 14.6433 40.7702 17.2347 40.7715 20C40.7715 22.7333 40.2462 25.3167 39.1955 27.75C38.1448 30.1833 36.7115 32.3087 34.8955 34.126C33.0795 35.942 30.9628 37.3753 28.5455 38.426C26.1282 39.4767 23.5368 40.0013 20.7715 40ZM20.7715 35.9C21.6382 34.7 22.3882 33.45 23.0215 32.15C23.6548 30.85 24.1715 29.4667 24.5715 28H16.9715C17.3715 29.4667 17.8882 30.85 18.5215 32.15C19.1548 33.45 19.9048 34.7 20.7715 35.9ZM15.5715 35.1C14.9715 34 14.4462 32.858 13.9955 31.674C13.5448 30.49 13.1702 29.2653 12.8715 28H6.97149C7.93815 29.6667 9.14682 31.1167 10.5975 32.35C12.0482 33.5833 13.7062 34.5 15.5715 35.1ZM25.9715 35.1C27.8382 34.5 29.4968 33.5833 30.9475 32.35C32.3982 31.1167 33.6062 29.6667 34.5715 28H28.6715C28.3715 29.2667 27.9968 30.492 27.5475 31.676C27.0982 32.86 26.5728 34.0013 25.9715 35.1ZM5.27149 24H12.0715C11.9715 23.3333 11.8962 22.6747 11.8455 22.024C11.7948 21.3733 11.7702 20.6987 11.7715 20C11.7715 19.3 11.7968 18.6253 11.8475 17.976C11.8982 17.3267 11.9728 16.668 12.0715 16H5.27149C5.10482 16.6667 4.97949 17.3253 4.89549 17.976C4.81149 18.6267 4.77015 19.3013 4.77149 20C4.77149 20.7 4.81349 21.3747 4.89749 22.024C4.98149 22.6733 5.10615 23.332 5.27149 24ZM16.0715 24H25.4715C25.5715 23.3333 25.6468 22.6747 25.6975 22.024C25.7482 21.3733 25.7728 20.6987 25.7715 20C25.7715 19.3 25.7462 18.6253 25.6955 17.976C25.6448 17.3267 25.5702 16.668 25.4715 16H16.0715C15.9715 16.6667 15.8962 17.3253 15.8455 17.976C15.7948 18.6267 15.7702 19.3013 15.7715 20C15.7715 20.7 15.7968 21.3747 15.8475 22.024C15.8982 22.6733 15.9728 23.332 16.0715 24ZM29.4715 24H36.2715C36.4382 23.3333 36.5635 22.6747 36.6475 22.024C36.7315 21.3733 36.7728 20.6987 36.7715 20C36.7715 19.3 36.7295 18.6253 36.6455 17.976C36.5615 17.3267 36.4368 16.668 36.2715 16H29.4715C29.5715 16.6667 29.6468 17.3253 29.6975 17.976C29.7482 18.6267 29.7728 19.3013 29.7715 20C29.7715 20.7 29.7462 21.3747 29.6955 22.024C29.6448 22.6733 29.5702 23.332 29.4715 24ZM28.6715 12H34.5715C33.6048 10.3333 32.3968 8.88333 30.9475 7.65C29.4982 6.41667 27.8395 5.5 25.9715 4.9C26.5715 6 27.0968 7.142 27.5475 8.326C27.9982 9.51 28.3728 10.7347 28.6715 12ZM16.9715 12H24.5715C24.1715 10.5333 23.6548 9.15 23.0215 7.85C22.3882 6.55 21.6382 5.3 20.7715 4.1C19.9048 5.3 19.1548 6.55 18.5215 7.85C17.8882 9.15 17.3715 10.5333 16.9715 12ZM6.97149 12H12.8715C13.1715 10.7333 13.5468 9.508 13.9975 8.324C14.4482 7.14 14.9728 5.99867 15.5715 4.9C13.7048 5.5 12.0462 6.41667 10.5955 7.65C9.14482 8.88333 7.93682 10.3333 6.97149 12Z" fill="white"/>
</svg>
