<svg width="146" height="32" viewBox="0 0 146 32" fill="none" xmlns="http://www.w3.org/2000/svg">
<path d="M0 1.75759H13.8863C17.1026 1.75759 19.9554 2.3574 22.4446 3.55702C24.9338 4.75664 26.8636 6.45843 28.234 8.66239C29.6045 10.8663 30.2897 13.4469 30.2897 16.4041C30.2897 19.3613 29.6045 21.9419 28.234 24.1459C26.8636 26.3498 24.9338 28.0516 22.4446 29.2512C19.9554 30.4509 17.1026 31.0507 13.8863 31.0507H0V1.75759ZM13.5507 24.4388C16.0678 24.4388 18.0815 23.7274 19.5918 22.3046C21.1301 20.8818 21.8992 18.915 21.8992 16.4041C21.8992 13.8933 21.1301 11.9265 19.5918 10.5037C18.0815 9.08086 16.0678 8.36946 13.5507 8.36946H8.30659V24.4388H13.5507Z" fill="white"/>
<path d="M43.9734 7.99283C47.7491 7.99283 50.6299 8.85768 52.6156 10.5874C54.6014 12.2892 55.5943 14.9116 55.5943 18.4547V31.0507H48.1687V28.1214C47.022 30.3253 44.7845 31.4273 41.4563 31.4273C39.6943 31.4273 38.17 31.1204 36.8834 30.5067C35.5969 29.8929 34.618 29.0699 33.9468 28.0377C33.3035 26.9775 32.9819 25.7779 32.9819 24.4388C32.9819 22.2907 33.8069 20.6307 35.4571 19.459C37.1072 18.2594 39.6523 17.6596 43.0924 17.6596H47.6233C47.4835 15.2603 45.8753 14.0607 42.7987 14.0607C41.708 14.0607 40.6032 14.242 39.4845 14.6047C38.3658 14.9395 37.4148 15.4137 36.6317 16.0275L33.9468 10.6292C35.2054 9.79226 36.7296 9.15061 38.5196 8.70423C40.3375 8.22997 42.1555 7.99283 43.9734 7.99283ZM43.6798 26.4056C44.6027 26.4056 45.4138 26.1824 46.113 25.7361C46.8122 25.2897 47.3156 24.6341 47.6233 23.7693V21.8024H44.1832C41.8618 21.8024 40.7011 22.5696 40.7011 24.104C40.7011 24.8015 40.9668 25.3595 41.4982 25.7779C42.0296 26.1964 42.7568 26.4056 43.6798 26.4056Z" fill="white"/>
<path d="M70.9459 23.0997L68.5966 25.485V31.0507H60.6256V0H68.5966V16.2786L76.7354 8.36946H86.1747L76.7354 18.078L86.9718 31.0507H77.3227L70.9459 23.0997Z" fill="white"/>
<path d="M111.603 19.7519C111.603 19.8077 111.562 20.4633 111.478 21.7187H94.9483C95.2839 22.8905 95.9272 23.7972 96.8781 24.4388C97.857 25.0526 99.0736 25.3595 100.528 25.3595C101.619 25.3595 102.556 25.206 103.339 24.8991C104.15 24.5923 104.961 24.0901 105.772 23.3926L109.967 27.7447C107.758 30.1998 104.527 31.4273 100.276 31.4273C97.6193 31.4273 95.2839 30.9251 93.2702 29.9208C91.2565 28.9165 89.6903 27.5216 88.5715 25.7361C87.4808 23.9506 86.9354 21.928 86.9354 19.6682C86.9354 17.4364 87.4668 15.4416 88.5296 13.6841C89.6203 11.8986 91.1167 10.5037 93.0185 9.49933C94.9203 8.495 97.0599 7.99283 99.4372 7.99283C101.703 7.99283 103.758 8.4671 105.604 9.41564C107.45 10.3363 108.905 11.6893 109.967 13.4748C111.058 15.2324 111.603 17.3248 111.603 19.7519ZM99.4792 13.6422C98.2486 13.6422 97.2137 13.9909 96.3747 14.6884C95.5636 15.3859 95.0462 16.3344 94.8225 17.534H104.136C103.912 16.3344 103.381 15.3859 102.542 14.6884C101.731 13.9909 100.71 13.6422 99.4792 13.6422Z" fill="white"/>
<path d="M122.872 11.0895C123.683 10.0573 124.732 9.2901 126.018 8.78793C127.333 8.25787 128.829 7.99283 130.507 7.99283V15.1487C129.78 15.065 129.179 15.0232 128.703 15.0232C126.997 15.0232 125.655 15.4835 124.676 16.4041C123.725 17.3248 123.25 18.7336 123.25 20.6307V31.0507H115.279V8.36946H122.872V11.0895Z" fill="white"/>
<rect x="136.884" y="22.0711" width="9.11632" height="8.87642" fill="#1F9D96"/>
</svg>
