<svg width="45" height="48" viewBox="0 0 45 48" fill="none" xmlns="http://www.w3.org/2000/svg">
<path d="M37.3333 3.00002C33.474 3.00002 30.3333 6.14069 30.3333 10C30.3333 11.1714 30.6507 12.2587 31.1593 13.2317L28.5553 16.2697C27.015 15.2234 25.1954 14.6648 23.3333 14.6667C21.609 14.6667 20.0083 15.1707 18.62 15.9874L15.3207 12.688C15.9761 11.5084 16.3243 10.1828 16.3333 8.83335C16.3333 4.33002 12.67 0.666687 8.16667 0.666687C3.66333 0.666687 0 4.33002 0 8.83335C0 13.3367 3.66333 17 8.16667 17C9.569 17 10.8687 16.6127 12.0213 15.9874L15.3207 19.2867C14.466 20.7111 14.0099 22.3389 14 24C14 26.3264 14.8867 28.431 16.2983 30.069L12.3503 34.017L12.4087 34.0754C11.4547 33.5936 10.402 33.3396 9.33333 33.3334C5.474 33.3334 2.33333 36.474 2.33333 40.3334C2.33333 44.1927 5.474 47.3334 9.33333 47.3334C13.1927 47.3334 16.3333 44.1927 16.3333 40.3334C16.3333 39.2227 16.051 38.189 15.5913 37.258L15.6497 37.3164L20.209 32.757C21.1913 33.107 22.232 33.3334 23.3333 33.3334C28.4807 33.3334 32.6667 29.1474 32.6667 24C32.6566 22.5506 32.3057 21.1238 31.6423 19.835L34.566 16.4237C35.4153 16.7924 36.3487 17 37.3333 17C41.1927 17 44.3333 13.8594 44.3333 10C44.3333 6.14069 41.1927 3.00002 37.3333 3.00002ZM9.33333 42.6667C8.71449 42.6667 8.121 42.4209 7.68342 41.9833C7.24583 41.5457 7 40.9522 7 40.3334C7 39.7145 7.24583 39.121 7.68342 38.6834C8.121 38.2459 8.71449 38 9.33333 38C9.95217 38 10.5457 38.2459 10.9832 38.6834C11.4208 39.121 11.6667 39.7145 11.6667 40.3334C11.6667 40.9522 11.4208 41.5457 10.9832 41.9833C10.5457 42.4209 9.95217 42.6667 9.33333 42.6667ZM4.66667 8.83335C4.66667 6.90369 6.237 5.33335 8.16667 5.33335C10.0963 5.33335 11.6667 6.90369 11.6667 8.83335C11.6667 10.763 10.0963 12.3334 8.16667 12.3334C6.237 12.3334 4.66667 10.763 4.66667 8.83335ZM23.3333 28.6667C20.7597 28.6667 18.6667 26.5737 18.6667 24C18.6667 21.4264 20.7597 19.3334 23.3333 19.3334C25.907 19.3334 28 21.4264 28 24C28 26.5737 25.907 28.6667 23.3333 28.6667ZM37.3333 12.3334C36.7145 12.3334 36.121 12.0875 35.6834 11.6499C35.2458 11.2124 35 10.6189 35 10C35 9.38118 35.2458 8.78769 35.6834 8.35011C36.121 7.91252 36.7145 7.66669 37.3333 7.66669C37.9522 7.66669 38.5457 7.91252 38.9832 8.35011C39.4208 8.78769 39.6667 9.38118 39.6667 10C39.6667 10.6189 39.4208 11.2124 38.9832 11.6499C38.5457 12.0875 37.9522 12.3334 37.3333 12.3334Z" fill="white"/>
</svg>
