<svg width="52" height="42" viewBox="0 0 52 42" fill="none" xmlns="http://www.w3.org/2000/svg">
<path fill-rule="evenodd" clip-rule="evenodd" d="M30.6667 9.33331C30.0478 9.33331 29.4543 9.57915 29.0168 10.0167C28.5792 10.4543 28.3333 11.0478 28.3333 11.6666V30.3333C28.3333 30.9522 28.5792 31.5456 29.0168 31.9832C29.4543 32.4208 30.0478 32.6666 30.6667 32.6666H40C40.6188 32.6666 41.2123 32.4208 41.6499 31.9832C42.0875 31.5456 42.3333 30.9522 42.3333 30.3333V11.6666C42.3333 11.0478 42.0875 10.4543 41.6499 10.0167C41.2123 9.57915 40.6188 9.33331 40 9.33331H30.6667ZM37.6667 14H33V28H37.6667V14Z" fill="white"/>
<path d="M12 9.33331C11.3812 9.33331 10.7877 9.57915 10.3501 10.0167C9.9125 10.4543 9.66667 11.0478 9.66667 11.6666C9.66667 12.2855 9.9125 12.879 10.3501 13.3166C10.7877 13.7541 11.3812 14 12 14H21.3333C21.9522 14 22.5457 13.7541 22.9832 13.3166C23.4208 12.879 23.6667 12.2855 23.6667 11.6666C23.6667 11.0478 23.4208 10.4543 22.9832 10.0167C22.5457 9.57915 21.9522 9.33331 21.3333 9.33331H12ZM12 18.6666C11.3812 18.6666 10.7877 18.9125 10.3501 19.3501C9.9125 19.7877 9.66667 20.3811 9.66667 21C9.66667 21.6188 9.9125 22.2123 10.3501 22.6499C10.7877 23.0875 11.3812 23.3333 12 23.3333H21.3333C21.9522 23.3333 22.5457 23.0875 22.9832 22.6499C23.4208 22.2123 23.6667 21.6188 23.6667 21C23.6667 20.3811 23.4208 19.7877 22.9832 19.3501C22.5457 18.9125 21.9522 18.6666 21.3333 18.6666H12ZM9.66667 30.3333C9.66667 29.7145 9.9125 29.121 10.3501 28.6834C10.7877 28.2458 11.3812 28 12 28H21.3333C21.9522 28 22.5457 28.2458 22.9832 28.6834C23.4208 29.121 23.6667 29.7145 23.6667 30.3333C23.6667 30.9522 23.4208 31.5456 22.9832 31.9832C22.5457 32.4208 21.9522 32.6666 21.3333 32.6666H12C11.3812 32.6666 10.7877 32.4208 10.3501 31.9832C9.9125 31.5456 9.66667 30.9522 9.66667 30.3333Z" fill="white"/>
<path fill-rule="evenodd" clip-rule="evenodd" d="M7.33333 0C5.47682 0 3.69634 0.737498 2.38359 2.05025C1.07083 3.36301 0.333334 5.14348 0.333334 7V35C0.333334 36.8565 1.07083 38.637 2.38359 39.9497C3.69634 41.2625 5.47682 42 7.33333 42H44.6667C46.5232 42 48.3037 41.2625 49.6164 39.9497C50.9292 38.637 51.6667 36.8565 51.6667 35V7C51.6667 5.14348 50.9292 3.36301 49.6164 2.05025C48.3037 0.737498 46.5232 0 44.6667 0H7.33333ZM44.6667 4.66667H7.33333C6.7145 4.66667 6.121 4.9125 5.68342 5.35008C5.24583 5.78767 5 6.38116 5 7V35C5 35.6188 5.24583 36.2123 5.68342 36.6499C6.121 37.0875 6.7145 37.3333 7.33333 37.3333H44.6667C45.2855 37.3333 45.879 37.0875 46.3166 36.6499C46.7542 36.2123 47 35.6188 47 35V7C47 6.38116 46.7542 5.78767 46.3166 5.35008C45.879 4.9125 45.2855 4.66667 44.6667 4.66667Z" fill="white"/>
</svg>
