<svg width="48" height="42" viewBox="0 0 48 42" fill="none" xmlns="http://www.w3.org/2000/svg">
<path d="M42.6667 0H5.33334C4.09566 0 2.90868 0.491665 2.03351 1.36683C1.15834 2.242 0.666672 3.42899 0.666672 4.66667V14C0.666672 15.2377 1.15834 16.4247 2.03351 17.2998C2.90868 18.175 4.09566 18.6667 5.33334 18.6667H42.6667C43.9044 18.6667 45.0913 18.175 45.9665 17.2998C46.8417 16.4247 47.3333 15.2377 47.3333 14V4.66667C47.3333 3.42899 46.8417 2.242 45.9665 1.36683C45.0913 0.491665 43.9044 0 42.6667 0ZM5.33334 14V4.66667H42.6667V14H5.33334ZM42.6667 23.3333H5.33334C4.09566 23.3333 2.90868 23.825 2.03351 24.7002C1.15834 25.5753 0.666672 26.7623 0.666672 28V37.3333C0.666672 38.571 1.15834 39.758 2.03351 40.6332C2.90868 41.5083 4.09566 42 5.33334 42H42.6667C43.9044 42 45.0913 41.5083 45.9665 40.6332C46.8417 39.758 47.3333 38.571 47.3333 37.3333V28C47.3333 26.7623 46.8417 25.5753 45.9665 24.7002C45.0913 23.825 43.9044 23.3333 42.6667 23.3333ZM5.33334 37.3333V28H42.6667V37.3333H5.33334Z" fill="white"/>
</svg>
