<svg width="108" height="88" viewBox="0 0 108 88" fill="none" xmlns="http://www.w3.org/2000/svg">
<path fill-rule="evenodd" clip-rule="evenodd" d="M63.6667 19.8334C62.3848 19.8334 61.1554 20.3426 60.249 21.249C59.3426 22.1555 58.8333 23.3848 58.8333 24.6667V63.3334C58.8333 64.6152 59.3426 65.8446 60.249 66.7511C61.1554 67.6575 62.3848 68.1667 63.6667 68.1667H83C84.2819 68.1667 85.5113 67.6575 86.4177 66.7511C87.3241 65.8446 87.8333 64.6152 87.8333 63.3334V24.6667C87.8333 23.3848 87.3241 22.1555 86.4177 21.249C85.5113 20.3426 84.2819 19.8334 83 19.8334H63.6667ZM78.1667 29.5H68.5V58.5H78.1667V29.5Z" fill="#1F9D96"/>
<path d="M25 19.8334C23.7181 19.8334 22.4887 20.3426 21.5823 21.249C20.6759 22.1555 20.1667 23.3848 20.1667 24.6667C20.1667 25.9486 20.6759 27.178 21.5823 28.0844C22.4887 28.9908 23.7181 29.5 25 29.5H44.3333C45.6152 29.5 46.8446 28.9908 47.751 28.0844C48.6574 27.178 49.1667 25.9486 49.1667 24.6667C49.1667 23.3848 48.6574 22.1555 47.751 21.249C46.8446 20.3426 45.6152 19.8334 44.3333 19.8334H25ZM25 39.1667C23.7181 39.1667 22.4887 39.6759 21.5823 40.5824C20.6759 41.4888 20.1667 42.7182 20.1667 44C20.1667 45.2819 20.6759 46.5113 21.5823 47.4177C22.4887 48.3241 23.7181 48.8334 25 48.8334H44.3333C45.6152 48.8334 46.8446 48.3241 47.751 47.4177C48.6574 46.5113 49.1667 45.2819 49.1667 44C49.1667 42.7182 48.6574 41.4888 47.751 40.5824C46.8446 39.6759 45.6152 39.1667 44.3333 39.1667H25ZM20.1667 63.3334C20.1667 62.0515 20.6759 60.8221 21.5823 59.9157C22.4887 59.0093 23.7181 58.5 25 58.5H44.3333C45.6152 58.5 46.8446 59.0093 47.751 59.9157C48.6574 60.8221 49.1667 62.0515 49.1667 63.3334C49.1667 64.6152 48.6574 65.8446 47.751 66.7511C46.8446 67.6575 45.6152 68.1667 44.3333 68.1667H25C23.7181 68.1667 22.4887 67.6575 21.5823 66.7511C20.6759 65.8446 20.1667 64.6152 20.1667 63.3334Z" fill="#1F9D96"/>
<path fill-rule="evenodd" clip-rule="evenodd" d="M15.3333 0.5C11.4877 0.5 7.79956 2.02767 5.08028 4.74695C2.361 7.46623 0.833328 11.1544 0.833328 15V73C0.833328 76.8456 2.361 80.5338 5.08028 83.2531C7.79956 85.9723 11.4877 87.5 15.3333 87.5H92.6667C96.5123 87.5 100.2 85.9723 102.92 83.2531C105.639 80.5338 107.167 76.8456 107.167 73V15C107.167 11.1544 105.639 7.46623 102.92 4.74695C100.2 2.02767 96.5123 0.5 92.6667 0.5H15.3333ZM92.6667 10.1667H15.3333C14.0514 10.1667 12.8221 10.6759 11.9156 11.5823C11.0092 12.4887 10.5 13.7181 10.5 15V73C10.5 74.2819 11.0092 75.5113 11.9156 76.4177C12.8221 77.3241 14.0514 77.8333 15.3333 77.8333H92.6667C93.9485 77.8333 95.1779 77.3241 96.0844 76.4177C96.9908 75.5113 97.5 74.2819 97.5 73V15C97.5 13.7181 96.9908 12.4887 96.0844 11.5823C95.1779 10.6759 93.9485 10.1667 92.6667 10.1667Z" fill="#1F9D96"/>
</svg>
