<svg width="100" height="100" viewBox="0 0 100 100" fill="none" xmlns="http://www.w3.org/2000/svg">
<path d="M43.8 15.9C39.1562 15.9 34.8596 17.357 31.3256 19.837C31.0962 16.2844 30.284 13.203 28.7898 10.475C33.5094 7.86322 38.8288 6.52809 44.2223 6.60158C49.6159 6.67506 54.8969 8.15461 59.5436 10.894C64.1902 13.6334 68.0417 17.5379 70.7173 22.2215C73.393 26.9052 74.8002 32.206 74.8 37.6H88.7562C91.6327 37.6 94.3915 38.7423 96.4261 40.7757C98.4607 42.8092 99.6046 45.5673 99.6062 48.4438V82.5438C99.607 83.9697 99.3268 85.3818 98.7815 86.6993C98.2362 88.0168 97.4366 89.2139 96.4283 90.2221C95.4201 91.2304 94.223 92.03 92.9055 92.5753C91.588 93.1206 90.1759 93.4008 88.75 93.4H54.65C51.7724 93.4 49.0127 92.2569 46.9779 90.2221C44.9431 88.1874 43.8 85.4276 43.8 82.55V68.6C39.4872 68.6055 35.221 67.7079 31.276 65.965C31.3566 63.857 31.4 61.6436 31.4 59.3V58.9156C31.4 57.8802 31.4 56.6898 31.3814 55.4002C35.0226 57.9439 39.3583 59.3055 43.8 59.3V48.45C43.8 42.4608 48.6608 37.6 54.65 37.6H65.5C65.5 31.8448 63.2138 26.3253 59.1442 22.2558C55.0747 18.1863 49.5552 15.9 43.8 15.9ZM73.3802 46.9C71.8775 51.6609 69.2499 55.9896 65.7197 59.5198C62.1896 63.0499 57.8609 65.6776 53.1 67.1802V82.55C53.1 83.4056 53.7944 84.1 54.65 84.1H88.75C89.1611 84.1 89.5553 83.9367 89.846 83.646C90.1367 83.3554 90.3 82.9611 90.3 82.55V48.45C90.3 48.0389 90.1367 47.6447 89.846 47.354C89.5553 47.0633 89.1611 46.9 88.75 46.9H73.3802ZM63.4106 46.9H54.65C54.2389 46.9 53.8447 47.0633 53.554 47.354C53.2633 47.6447 53.1 48.0389 53.1 48.45V57.2106C57.6188 55.0596 61.2596 51.4188 63.4106 46.9ZM16.4022 1.17502C16.9168 1.62515 17.2682 2.23279 17.4016 2.90335C17.5351 3.5739 17.4431 4.26977 17.14 4.88262C17.0875 5.06401 17.0604 5.25179 17.0594 5.44062C17.0594 5.83122 17.1586 6.57522 18.0948 7.50522C18.5474 7.95782 18.8946 8.28022 19.2728 8.63362C19.5828 8.91882 19.9114 9.21642 20.3268 9.62562C21.1328 10.3944 21.9822 11.2996 22.7448 12.4342C24.3258 14.8088 25.2 17.7786 25.2 22.1C25.2 27.3886 23.2408 31.896 20.1842 34.6612L20.581 35.12C22.317 37.2528 23.3276 40.018 23.96 42.746C25.2 48.14 25.2 54.6252 25.2 59.145V59.3C25.2 76.5794 22.8502 86.3816 20.2648 91.9864C18.9628 94.8074 17.5802 96.6054 16.3836 97.7338C15.8971 98.2005 15.3607 98.6122 14.784 98.9614C14.5199 99.1204 14.2443 99.2593 13.9594 99.3768C13.9594 99.3768 13.2588 99.6 12.8 99.6C12.3412 99.6 11.6406 99.3768 11.6406 99.3768C11.3526 99.2661 11.0764 99.127 10.816 98.9614C10.2393 98.6122 9.70288 98.2005 9.21639 97.7338C8.01979 96.5992 6.63719 94.8074 5.33519 91.9864C2.74979 86.3816 0.399994 76.5794 0.399994 59.3V59.145C0.399994 54.619 0.399994 48.14 1.63999 42.746C2.27239 40.018 3.28299 37.2528 5.01899 35.12C5.14299 34.965 5.27939 34.81 5.41579 34.6612C2.35919 31.896 0.399994 27.3886 0.399994 22.1C0.399994 20.0788 0.939394 17.667 1.68339 15.4412C2.42739 13.2092 3.46899 10.9028 4.67179 9.04282C6.10399 6.62482 8.11899 4.59742 9.68139 3.23342C10.538 2.4801 11.4319 1.77033 12.3598 1.10682L12.6326 0.920821C13.2011 0.541856 13.8789 0.361326 14.5606 0.407296C15.2423 0.453265 15.8897 0.723159 16.4022 1.17502Z" fill="#1F9D96"/>
</svg>
