<svg width="89" height="94" viewBox="0 0 89 94" fill="none" xmlns="http://www.w3.org/2000/svg">
<path d="M74.6667 5.00004C66.948 5.00004 60.6667 11.2814 60.6667 19C60.6667 21.3427 61.3013 23.5174 62.3187 25.4634L57.1107 31.5394C54.03 29.4468 50.3909 28.3297 46.6667 28.3334C43.218 28.3334 40.0167 29.3414 37.24 30.9747L30.6413 24.376C31.9522 22.0167 32.6486 19.3657 32.6667 16.6667C32.6667 7.66004 25.34 0.333374 16.3333 0.333374C7.32667 0.333374 0 7.66004 0 16.6667C0 25.6734 7.32667 33 16.3333 33C19.138 33 21.7373 32.2254 24.0427 30.9747L30.6413 37.5734C28.932 40.4221 28.0198 43.6779 28 47C28 51.6527 29.7733 55.862 32.5967 59.138L24.7007 67.034L24.8173 67.1507C22.9094 66.1871 20.8041 65.6792 18.6667 65.6667C10.948 65.6667 4.66667 71.948 4.66667 79.6667C4.66667 87.3854 10.948 93.6667 18.6667 93.6667C26.3853 93.6667 32.6667 87.3854 32.6667 79.6667C32.6667 77.4454 32.102 75.378 31.1827 73.516L31.2993 73.6327L40.418 64.514C42.3827 65.214 44.464 65.6667 46.6667 65.6667C56.9613 65.6667 65.3333 57.2947 65.3333 47C65.3133 44.1011 64.6115 41.2476 63.2847 38.67L69.132 31.8474C70.8307 32.5847 72.6973 33 74.6667 33C82.3853 33 88.6667 26.7187 88.6667 19C88.6667 11.2814 82.3853 5.00004 74.6667 5.00004ZM18.6667 84.3334C17.429 84.3334 16.242 83.8417 15.3668 82.9665C14.4917 82.0914 14 80.9044 14 79.6667C14 78.429 14.4917 77.242 15.3668 76.3669C16.242 75.4917 17.429 75 18.6667 75C19.9043 75 21.0913 75.4917 21.9665 76.3669C22.8417 77.242 23.3333 78.429 23.3333 79.6667C23.3333 80.9044 22.8417 82.0914 21.9665 82.9665C21.0913 83.8417 19.9043 84.3334 18.6667 84.3334ZM9.33333 16.6667C9.33333 12.8074 12.474 9.66671 16.3333 9.66671C20.1927 9.66671 23.3333 12.8074 23.3333 16.6667C23.3333 20.526 20.1927 23.6667 16.3333 23.6667C12.474 23.6667 9.33333 20.526 9.33333 16.6667ZM46.6667 56.3334C41.5193 56.3334 37.3333 52.1474 37.3333 47C37.3333 41.8527 41.5193 37.6667 46.6667 37.6667C51.814 37.6667 56 41.8527 56 47C56 52.1474 51.814 56.3334 46.6667 56.3334ZM74.6667 23.6667C73.429 23.6667 72.242 23.175 71.3668 22.2999C70.4917 21.4247 70 20.2377 70 19C70 17.7624 70.4917 16.5754 71.3668 15.7002C72.242 14.825 73.429 14.3334 74.6667 14.3334C75.9044 14.3334 77.0913 14.825 77.9665 15.7002C78.8417 16.5754 79.3333 17.7624 79.3333 19C79.3333 20.2377 78.8417 21.4247 77.9665 22.2999C77.0913 23.175 75.9044 23.6667 74.6667 23.6667Z" fill="#1F9D96"/>
</svg>
