<svg width="56" height="56" viewBox="0 0 56 56" fill="none" xmlns="http://www.w3.org/2000/svg">
<path d="M46.6668 7H9.33342C8.09574 7 6.90875 7.49167 6.03358 8.36683C5.15841 9.242 4.66675 10.429 4.66675 11.6667V21C4.66675 22.2377 5.15841 23.4247 6.03358 24.2998C6.90875 25.175 8.09574 25.6667 9.33342 25.6667H46.6668C47.9044 25.6667 49.0914 25.175 49.9666 24.2998C50.8418 23.4247 51.3334 22.2377 51.3334 21V11.6667C51.3334 10.429 50.8418 9.242 49.9666 8.36683C49.0914 7.49167 47.9044 7 46.6668 7ZM9.33342 21V11.6667H46.6668V21H9.33342ZM46.6668 30.3333H9.33342C8.09574 30.3333 6.90875 30.825 6.03358 31.7002C5.15841 32.5753 4.66675 33.7623 4.66675 35V44.3333C4.66675 45.571 5.15841 46.758 6.03358 47.6332C6.90875 48.5083 8.09574 49 9.33342 49H46.6668C47.9044 49 49.0914 48.5083 49.9666 47.6332C50.8418 46.758 51.3334 45.571 51.3334 44.3333V35C51.3334 33.7623 50.8418 32.5753 49.9666 31.7002C49.0914 30.825 47.9044 30.3333 46.6668 30.3333ZM9.33342 44.3333V35H46.6668V44.3333H9.33342Z" fill="#1F9D96"/>
<path d="M39.6667 14H44.3334V18.6667H39.6667V14ZM32.6667 14H37.3334V18.6667H32.6667V14ZM39.6667 37.3333H44.3334V42H39.6667V37.3333ZM32.6667 37.3333H37.3334V42H32.6667V37.3333Z" fill="#1F9D96"/>
</svg>
