<svg width="70" height="70" viewBox="0 0 70 70" fill="none" xmlns="http://www.w3.org/2000/svg">
<rect width="69.5754" height="69.5754" rx="19" fill="#CE2525"/>
<g clip-path="url(#clip0_203_94)">
<path d="M44.0115 30.4811L49.5462 36.0159C50.4444 36.902 51.1583 37.9571 51.647 39.1203C52.1357 40.2835 52.3894 41.5319 52.3937 42.7936C52.3979 44.0553 52.1525 45.3054 51.6716 46.4718C51.1907 47.6383 50.4839 48.6981 49.5917 49.5903C48.6996 50.4824 47.6397 51.1893 46.4733 51.6702C45.3068 52.1511 44.0567 52.3965 42.7951 52.3922C41.5334 52.388 40.285 52.1342 39.1217 51.6456C37.9585 51.1569 36.9035 50.4429 36.0173 49.5448L34.1736 47.7011C33.9243 47.4605 33.7254 47.1727 33.5885 46.8544C33.4516 46.5362 33.3794 46.1939 33.3763 45.8474C33.3731 45.501 33.439 45.1574 33.57 44.8367C33.701 44.516 33.8946 44.2246 34.1395 43.9795C34.3843 43.7344 34.6755 43.5406 34.9961 43.4092C35.3167 43.2779 35.6602 43.2117 36.0067 43.2145C36.3531 43.2174 36.6955 43.2892 37.0139 43.4258C37.3323 43.5624 37.6203 43.761 37.8611 44.0101L39.7083 45.8556C40.5251 46.6651 41.6293 47.118 42.7793 47.1153C43.9293 47.1127 45.0314 46.6546 45.8444 45.8413C46.6575 45.028 47.1153 43.9258 47.1176 42.7758C47.12 41.6258 46.6667 40.5217 45.857 39.7051L40.3223 34.1704C39.7241 33.5719 38.9642 33.161 38.1359 32.9879C37.3076 32.8149 36.4468 32.8873 35.659 33.1963C35.3772 33.3076 35.1163 33.4224 34.8693 33.5372L34.0622 33.9147C32.9838 34.4017 32.1541 34.6104 31.0983 33.5564C29.5816 32.0396 29.9747 30.6394 31.8236 29.3645C33.6657 28.0977 35.8932 27.5159 38.1194 27.7198C40.3457 27.9238 42.4303 28.9008 44.0115 30.4811ZM33.5578 20.0274L35.4016 21.8712C35.8771 22.363 36.1404 23.022 36.1347 23.7061C36.1291 24.3902 35.855 25.0447 35.3715 25.5287C34.888 26.0126 34.2337 26.2873 33.5496 26.2936C32.8656 26.2999 32.2064 26.0372 31.7141 25.5622L29.8686 23.7184C29.4676 23.303 28.9878 22.9716 28.4574 22.7435C27.9269 22.5155 27.3563 22.3954 26.7789 22.3902C26.2016 22.385 25.6289 22.4949 25.0945 22.7134C24.56 22.9318 24.0744 23.2546 23.666 23.6628C23.2576 24.0709 22.9345 24.5564 22.7157 25.0907C22.497 25.6251 22.3868 26.1976 22.3916 26.775C22.3965 27.3524 22.5163 27.923 22.744 28.4536C22.9718 28.9842 23.3029 29.4642 23.7181 29.8654L29.2528 35.4001C29.8511 35.9986 30.6109 36.4095 31.4392 36.5826C32.2675 36.7556 33.1284 36.6832 33.9161 36.3742C34.1979 36.2629 34.4588 36.1481 34.7058 36.0333L35.5129 35.6558C36.5913 35.1688 37.4227 34.9601 38.4768 36.0141C39.9935 37.5309 39.6004 38.9311 37.7515 40.206C35.9094 41.4728 33.682 42.0546 31.4557 41.8507C29.2294 41.6467 27.1448 40.6697 25.5636 39.0894L20.0289 33.5546C19.1308 32.6685 18.4168 31.6134 17.9281 30.4502C17.4394 29.287 17.1857 28.0386 17.1815 26.7769C17.1772 25.5152 17.4226 24.2651 17.9035 23.0987C18.3844 21.9322 19.0912 20.8724 19.9834 19.9802C20.8756 19.0881 21.9354 18.3812 23.1018 17.9003C24.2683 17.4194 25.5184 17.174 26.7801 17.1783C28.0418 17.1825 29.2902 17.4363 30.4534 17.9249C31.6166 18.4136 32.6717 19.1293 33.5578 20.0274Z" fill="white"/>
</g>
<defs>
<clipPath id="clip0_203_94">
<rect width="41.7453" height="41.7453" fill="white" transform="translate(13.915 13.915)"/>
</clipPath>
</defs>
</svg>
