<svg width="1400" height="900" viewBox="0 0 1400 900" fill="none" xmlns="http://www.w3.org/2000/svg">
<g clip-path="url(#clip0_103_435)">
<rect width="1400" height="900" fill="black"/>
<g filter="url(#filter0_f_103_435)">
<ellipse cx="251.712" cy="217.88" rx="251.712" ry="217.88" transform="matrix(0.965383 -0.260837 0.360273 0.932847 259.815 133.502)" fill="url(#paint0_linear_103_435)"/>
</g>
<g filter="url(#filter1_f_103_435)">
<path d="M664.793 0L887.361 322.439H442.226L664.793 0Z" fill="url(#paint1_linear_103_435)"/>
</g>
<g filter="url(#filter2_f_103_435)">
<path d="M205.272 405.075C221.968 380.887 257.706 380.887 274.402 405.075L402.081 590.047C421.313 617.908 401.37 655.906 367.516 655.906H112.157C78.3039 655.906 58.361 617.908 77.5921 590.047L205.272 405.075Z" fill="url(#paint2_linear_103_435)"/>
</g>
<g filter="url(#filter3_f_103_435)">
<path d="M1237.56 164.411C1378.57 166.851 1490.51 264.436 1487.59 382.374C1484.67 500.311 1368 593.94 1227 591.5C1086 589.06 974.057 491.475 976.974 373.538C979.891 255.6 1096.56 161.971 1237.56 164.411Z" fill="url(#paint3_linear_103_435)"/>
</g>
<g filter="url(#filter4_f_103_435)">
<path d="M817.093 497.702L1207.11 318.251L1197.91 690.491L817.093 497.702Z" fill="url(#paint4_linear_103_435)"/>
</g>
</g>
<defs>
<filter id="filter0_f_103_435" x="125.878" y="-142.553" width="910.862" height="827.295" filterUnits="userSpaceOnUse" color-interpolation-filters="sRGB">
<feFlood flood-opacity="0" result="BackgroundImageFix"/>
<feBlend mode="normal" in="SourceGraphic" in2="BackgroundImageFix" result="shape"/>
<feGaussianBlur stdDeviation="100" result="effect1_foregroundBlur_103_435"/>
</filter>
<filter id="filter1_f_103_435" x="292.226" y="-150" width="745.136" height="622.439" filterUnits="userSpaceOnUse" color-interpolation-filters="sRGB">
<feFlood flood-opacity="0" result="BackgroundImageFix"/>
<feBlend mode="normal" in="SourceGraphic" in2="BackgroundImageFix" result="shape"/>
<feGaussianBlur stdDeviation="75" result="effect1_foregroundBlur_103_435"/>
</filter>
<filter id="filter2_f_103_435" x="-134.915" y="181.934" width="749.504" height="678.972" filterUnits="userSpaceOnUse" color-interpolation-filters="sRGB">
<feFlood flood-opacity="0" result="BackgroundImageFix"/>
<feBlend mode="normal" in="SourceGraphic" in2="BackgroundImageFix" result="shape"/>
<feGaussianBlur stdDeviation="102.5" result="effect1_foregroundBlur_103_435"/>
</filter>
<filter id="filter3_f_103_435" x="776.919" y="-35.6354" width="910.727" height="827.182" filterUnits="userSpaceOnUse" color-interpolation-filters="sRGB">
<feFlood flood-opacity="0" result="BackgroundImageFix"/>
<feBlend mode="normal" in="SourceGraphic" in2="BackgroundImageFix" result="shape"/>
<feGaussianBlur stdDeviation="100" result="effect1_foregroundBlur_103_435"/>
</filter>
<filter id="filter4_f_103_435" x="667.093" y="168.251" width="690.02" height="672.241" filterUnits="userSpaceOnUse" color-interpolation-filters="sRGB">
<feFlood flood-opacity="0" result="BackgroundImageFix"/>
<feBlend mode="normal" in="SourceGraphic" in2="BackgroundImageFix" result="shape"/>
<feGaussianBlur stdDeviation="75" result="effect1_foregroundBlur_103_435"/>
</filter>
<linearGradient id="paint0_linear_103_435" x1="52.0366" y1="30.0283" x2="341.384" y2="475.987" gradientUnits="userSpaceOnUse">
<stop stop-color="#1F9D96"/>
<stop offset="1" stop-color="#BC2525" stop-opacity="0"/>
</linearGradient>
<linearGradient id="paint1_linear_103_435" x1="664.793" y1="0" x2="664.793" y2="429.919" gradientUnits="userSpaceOnUse">
<stop offset="0.0885417" stop-color="#1F9D96"/>
<stop offset="1" stop-color="#14FFF2" stop-opacity="0"/>
</linearGradient>
<linearGradient id="paint2_linear_103_435" x1="239.837" y1="355" x2="239.837" y2="756.208" gradientUnits="userSpaceOnUse">
<stop offset="0.0885417" stop-color="#1F9D96"/>
<stop offset="1" stop-color="#14FFF2" stop-opacity="0"/>
</linearGradient>
<linearGradient id="paint3_linear_103_435" x1="915.099" y1="738.71" x2="1336.39" y2="377.188" gradientUnits="userSpaceOnUse">
<stop stop-color="#1F9D96"/>
<stop offset="1" stop-color="#BC2525" stop-opacity="0"/>
</linearGradient>
<linearGradient id="paint4_linear_103_435" x1="817.093" y1="497.702" x2="1330.89" y2="510.41" gradientUnits="userSpaceOnUse">
<stop offset="0.0885417" stop-color="#1F9D96"/>
<stop offset="1" stop-color="#14FFF2" stop-opacity="0"/>
</linearGradient>
<clipPath id="clip0_103_435">
<rect width="1400" height="900" fill="white"/>
</clipPath>
</defs>
</svg>
