<svg width="392" height="393" viewBox="0 0 392 393" fill="none" xmlns="http://www.w3.org/2000/svg">
<path d="M196 385.5C300.125 385.5 384.5 300.862 384.5 196.5C384.5 92.1377 300.125 7.5 196 7.5C91.8748 7.5 7.5 92.1377 7.5 196.5C7.5 300.862 91.8748 385.5 196 385.5Z" fill="black" stroke="#1F9D96" stroke-width="15"/>
<path d="M82.752 219.64C79.3387 219.64 76.16 219.085 73.216 217.976C70.3147 216.824 67.776 215.224 65.6 213.176C63.4667 211.085 61.8027 208.632 60.608 205.816C59.4133 203 58.816 199.928 58.816 196.6C58.816 193.272 59.4133 190.2 60.608 187.384C61.8027 184.568 63.488 182.136 65.664 180.088C67.84 177.997 70.3787 176.397 73.28 175.288C76.1813 174.136 79.36 173.56 82.816 173.56C86.4853 173.56 89.8347 174.2 92.864 175.48C95.8933 176.717 98.4533 178.573 100.544 181.048L95.168 186.104C93.5467 184.355 91.7333 183.053 89.728 182.2C87.7227 181.304 85.5467 180.856 83.2 180.856C80.8533 180.856 78.6987 181.24 76.736 182.008C74.816 182.776 73.1307 183.864 71.68 185.272C70.272 186.68 69.1627 188.344 68.352 190.264C67.584 192.184 67.2 194.296 67.2 196.6C67.2 198.904 67.584 201.016 68.352 202.936C69.1627 204.856 70.272 206.52 71.68 207.928C73.1307 209.336 74.816 210.424 76.736 211.192C78.6987 211.96 80.8533 212.344 83.2 212.344C85.5467 212.344 87.7227 211.917 89.728 211.064C91.7333 210.168 93.5467 208.824 95.168 207.032L100.544 212.152C98.4533 214.584 95.8933 216.44 92.864 217.72C89.8347 219 86.464 219.64 82.752 219.64ZM121.796 219.448C118.297 219.448 115.182 218.701 112.452 217.208C109.721 215.672 107.566 213.581 105.988 210.936C104.409 208.291 103.62 205.283 103.62 201.912C103.62 198.499 104.409 195.491 105.988 192.888C107.566 190.243 109.721 188.173 112.452 186.68C115.182 185.187 118.297 184.44 121.796 184.44C125.337 184.44 128.473 185.187 131.204 186.68C133.977 188.173 136.132 190.221 137.668 192.824C139.246 195.427 140.036 198.456 140.036 201.912C140.036 205.283 139.246 208.291 137.668 210.936C136.132 213.581 133.977 215.672 131.204 217.208C128.473 218.701 125.337 219.448 121.796 219.448ZM121.796 212.6C123.758 212.6 125.508 212.173 127.044 211.32C128.58 210.467 129.774 209.229 130.628 207.608C131.524 205.987 131.972 204.088 131.972 201.912C131.972 199.693 131.524 197.795 130.628 196.216C129.774 194.595 128.58 193.357 127.044 192.504C125.508 191.651 123.78 191.224 121.86 191.224C119.897 191.224 118.148 191.651 116.612 192.504C115.118 193.357 113.924 194.595 113.028 196.216C112.132 197.795 111.684 199.693 111.684 201.912C111.684 204.088 112.132 205.987 113.028 207.608C113.924 209.229 115.118 210.467 116.612 211.32C118.148 212.173 119.876 212.6 121.796 212.6ZM167.078 184.44C169.808 184.44 172.24 184.973 174.374 186.04C176.55 187.107 178.256 188.749 179.494 190.968C180.731 193.144 181.35 195.96 181.35 199.416V219H173.35V200.44C173.35 197.411 172.624 195.149 171.174 193.656C169.766 192.163 167.782 191.416 165.222 191.416C163.344 191.416 161.68 191.8 160.23 192.568C158.779 193.336 157.648 194.488 156.838 196.024C156.07 197.517 155.686 199.416 155.686 201.72V219H147.686V184.824H155.302V194.04L153.958 191.224C155.152 189.048 156.88 187.384 159.142 186.232C161.446 185.037 164.091 184.44 167.078 184.44ZM204.362 219.448C200.607 219.448 197.706 218.488 195.658 216.568C193.61 214.605 192.586 211.725 192.586 207.928V177.272H200.586V207.736C200.586 209.357 200.991 210.616 201.802 211.512C202.655 212.408 203.829 212.856 205.322 212.856C207.114 212.856 208.607 212.387 209.802 211.448L212.042 217.144C211.103 217.912 209.951 218.488 208.586 218.872C207.221 219.256 205.813 219.448 204.362 219.448ZM186.954 191.48V185.08H209.738V191.48H186.954ZM239.679 219V212.088L239.231 210.616V198.52C239.231 196.173 238.527 194.36 237.119 193.08C235.711 191.757 233.578 191.096 230.719 191.096C228.799 191.096 226.9 191.395 225.023 191.992C223.188 192.589 221.631 193.421 220.351 194.488L217.215 188.664C219.05 187.256 221.226 186.211 223.743 185.528C226.303 184.803 228.948 184.44 231.679 184.44C236.628 184.44 240.447 185.635 243.135 188.024C245.866 190.371 247.231 194.019 247.231 198.968V219H239.679ZM228.927 219.448C226.367 219.448 224.127 219.021 222.207 218.168C220.287 217.272 218.794 216.056 217.727 214.52C216.703 212.941 216.191 211.171 216.191 209.208C216.191 207.288 216.639 205.56 217.535 204.024C218.474 202.488 219.988 201.272 222.079 200.376C224.17 199.48 226.943 199.032 230.399 199.032H240.319V204.344H230.975C228.244 204.344 226.41 204.792 225.471 205.688C224.532 206.541 224.063 207.608 224.063 208.888C224.063 210.339 224.639 211.491 225.791 212.344C226.943 213.197 228.543 213.624 230.591 213.624C232.554 213.624 234.303 213.176 235.839 212.28C237.418 211.384 238.548 210.061 239.231 208.312L240.575 213.112C239.807 215.117 238.42 216.675 236.415 217.784C234.452 218.893 231.956 219.448 228.927 219.448ZM273.241 219.448C269.657 219.448 266.457 218.701 263.641 217.208C260.867 215.672 258.691 213.581 257.113 210.936C255.534 208.291 254.745 205.283 254.745 201.912C254.745 198.499 255.534 195.491 257.113 192.888C258.691 190.243 260.867 188.173 263.641 186.68C266.457 185.187 269.657 184.44 273.241 184.44C276.569 184.44 279.491 185.123 282.009 186.488C284.569 187.811 286.51 189.773 287.833 192.376L281.689 195.96C280.665 194.339 279.406 193.144 277.913 192.376C276.462 191.608 274.883 191.224 273.177 191.224C271.214 191.224 269.443 191.651 267.865 192.504C266.286 193.357 265.049 194.595 264.153 196.216C263.257 197.795 262.809 199.693 262.809 201.912C262.809 204.131 263.257 206.051 264.153 207.672C265.049 209.251 266.286 210.467 267.865 211.32C269.443 212.173 271.214 212.6 273.177 212.6C274.883 212.6 276.462 212.216 277.913 211.448C279.406 210.68 280.665 209.485 281.689 207.864L287.833 211.448C286.51 214.008 284.569 215.992 282.009 217.4C279.491 218.765 276.569 219.448 273.241 219.448ZM308.05 219.448C304.295 219.448 301.394 218.488 299.345 216.568C297.298 214.605 296.274 211.725 296.274 207.928V177.272H304.274V207.736C304.274 209.357 304.679 210.616 305.49 211.512C306.343 212.408 307.516 212.856 309.01 212.856C310.802 212.856 312.295 212.387 313.49 211.448L315.73 217.144C314.791 217.912 313.639 218.488 312.274 218.872C310.908 219.256 309.5 219.448 308.05 219.448ZM290.642 191.48V185.08H313.426V191.48H290.642Z" fill="white"/>
<rect x="334" y="207" width="12" height="12" fill="#1F9D96"/>
</svg>
