<svg width="392" height="393" viewBox="0 0 392 393" fill="none" xmlns="http://www.w3.org/2000/svg">
<path d="M48.016 273V228.2H66.448C70.416 228.2 73.808 228.84 76.624 230.12C79.4827 231.4 81.68 233.235 83.216 235.624C84.752 238.013 85.52 240.851 85.52 244.136C85.52 247.421 84.752 250.259 83.216 252.648C81.68 255.037 79.4827 256.872 76.624 258.152C73.808 259.432 70.416 260.072 66.448 260.072H52.624L56.336 256.168V273H48.016ZM56.336 257.064L52.624 253.032H66.064C69.7333 253.032 72.4853 252.264 74.32 250.728C76.1973 249.149 77.136 246.952 77.136 244.136C77.136 241.277 76.1973 239.08 74.32 237.544C72.4853 236.008 69.7333 235.24 66.064 235.24H52.624L56.336 231.144V257.064ZM108.296 273.448C104.797 273.448 101.682 272.701 98.9515 271.208C96.2208 269.672 94.0662 267.581 92.4875 264.936C90.9088 262.291 90.1195 259.283 90.1195 255.912C90.1195 252.499 90.9088 249.491 92.4875 246.888C94.0662 244.243 96.2208 242.173 98.9515 240.68C101.682 239.187 104.797 238.44 108.296 238.44C111.837 238.44 114.973 239.187 117.704 240.68C120.477 242.173 122.632 244.221 124.168 246.824C125.746 249.427 126.536 252.456 126.536 255.912C126.536 259.283 125.746 262.291 124.168 264.936C122.632 267.581 120.477 269.672 117.704 271.208C114.973 272.701 111.837 273.448 108.296 273.448ZM108.296 266.6C110.258 266.6 112.008 266.173 113.544 265.32C115.08 264.467 116.274 263.229 117.128 261.608C118.024 259.987 118.472 258.088 118.472 255.912C118.472 253.693 118.024 251.795 117.128 250.216C116.274 248.595 115.08 247.357 113.544 246.504C112.008 245.651 110.28 245.224 108.36 245.224C106.397 245.224 104.648 245.651 103.112 246.504C101.618 247.357 100.424 248.595 99.5275 250.216C98.6315 251.795 98.1835 253.693 98.1835 255.912C98.1835 258.088 98.6315 259.987 99.5275 261.608C100.424 263.229 101.618 264.467 103.112 265.32C104.648 266.173 106.376 266.6 108.296 266.6ZM134.186 273V238.824H141.802V248.232L140.906 245.48C141.93 243.176 143.53 241.427 145.706 240.232C147.924 239.037 150.676 238.44 153.962 238.44V246.056C153.62 245.971 153.3 245.928 153.002 245.928C152.703 245.885 152.404 245.864 152.106 245.864C149.076 245.864 146.666 246.76 144.874 248.552C143.082 250.301 142.186 252.925 142.186 256.424V273H134.186ZM174.862 273.448C171.107 273.448 168.206 272.488 166.158 270.568C164.11 268.605 163.086 265.725 163.086 261.928V231.272H171.086V261.736C171.086 263.357 171.491 264.616 172.302 265.512C173.155 266.408 174.329 266.856 175.822 266.856C177.614 266.856 179.107 266.387 180.302 265.448L182.542 271.144C181.603 271.912 180.451 272.488 179.086 272.872C177.721 273.256 176.313 273.448 174.862 273.448ZM157.454 245.48V239.08H180.238V245.48H157.454ZM190.211 273V236.904C190.211 233.32 191.256 230.461 193.347 228.328C195.48 226.152 198.51 225.064 202.435 225.064C203.843 225.064 205.166 225.213 206.403 225.512C207.683 225.811 208.75 226.28 209.603 226.92L207.427 232.936C206.83 232.467 206.147 232.125 205.379 231.912C204.611 231.656 203.822 231.528 203.011 231.528C201.347 231.528 200.088 231.997 199.235 232.936C198.382 233.832 197.955 235.197 197.955 237.032V240.872L198.211 244.456V273H190.211ZM184.579 245.48V239.08H207.363V245.48H184.579ZM227.608 273.448C224.109 273.448 220.995 272.701 218.264 271.208C215.533 269.672 213.379 267.581 211.8 264.936C210.221 262.291 209.432 259.283 209.432 255.912C209.432 252.499 210.221 249.491 211.8 246.888C213.379 244.243 215.533 242.173 218.264 240.68C220.995 239.187 224.109 238.44 227.608 238.44C231.149 238.44 234.285 239.187 237.016 240.68C239.789 242.173 241.944 244.221 243.48 246.824C245.059 249.427 245.848 252.456 245.848 255.912C245.848 259.283 245.059 262.291 243.48 264.936C241.944 267.581 239.789 269.672 237.016 271.208C234.285 272.701 231.149 273.448 227.608 273.448ZM227.608 266.6C229.571 266.6 231.32 266.173 232.856 265.32C234.392 264.467 235.587 263.229 236.44 261.608C237.336 259.987 237.784 258.088 237.784 255.912C237.784 253.693 237.336 251.795 236.44 250.216C235.587 248.595 234.392 247.357 232.856 246.504C231.32 245.651 229.592 245.224 227.672 245.224C225.709 245.224 223.96 245.651 222.424 246.504C220.931 247.357 219.736 248.595 218.84 250.216C217.944 251.795 217.496 253.693 217.496 255.912C217.496 258.088 217.944 259.987 218.84 261.608C219.736 263.229 220.931 264.467 222.424 265.32C223.96 266.173 225.688 266.6 227.608 266.6ZM253.498 273V225.512H261.498V273H253.498ZM271.998 273V238.824H279.998V273H271.998ZM276.03 233.192C274.537 233.192 273.299 232.723 272.318 231.784C271.379 230.845 270.91 229.715 270.91 228.392C270.91 227.027 271.379 225.896 272.318 225C273.299 224.061 274.537 223.592 276.03 223.592C277.523 223.592 278.739 224.04 279.678 224.936C280.659 225.789 281.15 226.877 281.15 228.2C281.15 229.608 280.681 230.803 279.742 231.784C278.803 232.723 277.566 233.192 276.03 233.192ZM305.858 273.448C302.359 273.448 299.245 272.701 296.514 271.208C293.783 269.672 291.629 267.581 290.05 264.936C288.471 262.291 287.682 259.283 287.682 255.912C287.682 252.499 288.471 249.491 290.05 246.888C291.629 244.243 293.783 242.173 296.514 240.68C299.245 239.187 302.359 238.44 305.858 238.44C309.399 238.44 312.535 239.187 315.266 240.68C318.039 242.173 320.194 244.221 321.73 246.824C323.309 249.427 324.098 252.456 324.098 255.912C324.098 259.283 323.309 262.291 321.73 264.936C320.194 267.581 318.039 269.672 315.266 271.208C312.535 272.701 309.399 273.448 305.858 273.448ZM305.858 266.6C307.821 266.6 309.57 266.173 311.106 265.32C312.642 264.467 313.837 263.229 314.69 261.608C315.586 259.987 316.034 258.088 316.034 255.912C316.034 253.693 315.586 251.795 314.69 250.216C313.837 248.595 312.642 247.357 311.106 246.504C309.57 245.651 307.842 245.224 305.922 245.224C303.959 245.224 302.21 245.651 300.674 246.504C299.181 247.357 297.986 248.595 297.09 250.216C296.194 251.795 295.746 253.693 295.746 255.912C295.746 258.088 296.194 259.987 297.09 261.608C297.986 263.229 299.181 264.467 300.674 265.32C302.21 266.173 303.938 266.6 305.858 266.6Z" fill="white"/>
<rect x="338" y="261" width="12" height="12" fill="#1F9D96"/>
<path d="M200.739 149.896L197.392 153.294V161.223H186.036V116.987H197.392V140.178L208.987 128.911H222.434L208.987 142.742L223.57 161.223H209.823L200.739 149.896Z" fill="url(#paint0_linear_13_3165)"/>
<path d="M162.646 127.582C168.025 127.582 172.129 128.814 174.957 131.279C177.787 133.703 179.201 137.439 179.201 142.486V160.431H168.622V156.258C166.989 159.398 163.801 160.968 159.06 160.968C156.55 160.968 154.378 160.53 152.545 159.656C150.712 158.782 149.318 157.609 148.361 156.139C147.445 154.628 146.987 152.919 146.987 151.011C146.987 147.951 148.162 145.586 150.513 143.917C152.864 142.208 156.49 141.354 161.39 141.354H167.845C167.646 137.936 165.355 136.227 160.972 136.227C159.418 136.227 157.844 136.485 156.251 137.002C154.657 137.479 153.302 138.154 152.187 139.029L148.361 131.338C150.154 130.146 152.326 129.232 154.876 128.596C157.466 127.92 160.056 127.582 162.646 127.582ZM162.227 153.814C163.542 153.814 164.698 153.496 165.694 152.86C166.69 152.224 167.407 151.29 167.845 150.058V147.256H162.945C159.638 147.256 157.984 148.349 157.984 150.535C157.984 151.528 158.362 152.323 159.119 152.919C159.876 153.516 160.912 153.814 162.227 153.814Z" fill="url(#paint1_linear_13_3165)"/>
<path d="M97 119.38H116.783C121.365 119.38 125.429 120.234 128.975 121.943C132.521 123.652 135.271 126.077 137.223 129.217C139.175 132.356 140.151 136.032 140.151 140.246C140.151 144.459 139.175 148.135 137.223 151.275C135.271 154.414 132.521 156.839 128.975 158.548C125.429 160.257 121.365 161.111 116.783 161.111H97V119.38ZM116.305 151.692C119.891 151.692 122.759 150.678 124.911 148.651C127.103 146.625 128.198 143.822 128.198 140.246C128.198 136.669 127.103 133.867 124.911 131.84C122.759 129.813 119.891 128.799 116.305 128.799H108.834V151.692H116.305Z" fill="url(#paint2_linear_13_3165)"/>
<path d="M144.336 160.734C149.812 144.811 156.556 137.585 165.867 138.006C154.076 146.38 148.095 159.538 154.418 160.221M178.684 135.101C184.323 136.64 177.688 175.373 152.196 174.405M178.684 135.101C169.516 151.134 164.257 160.054 152.196 174.405M178.684 135.101L181.076 130.316M152.196 174.405L142.456 177.652" stroke="#1F9D96" stroke-width="2"/>
<path d="M170.994 165.69C182.272 162.922 182.417 150.284 179.025 149.968M196.551 157.487L193.356 161.93C198.603 147.568 201.217 141.253 194.552 139.373C190.172 138.138 184.361 149.927 186.008 155.779C186.866 158.83 192.073 159.645 196.551 157.487ZM196.551 157.487C201.418 154.868 203.385 152.129 208.565 143.816M196.551 157.487C196.551 157.487 200.557 150.139 200.728 149.968M168.601 159.88C167.576 159.88 162.743 171.876 168.236 172.012C176.517 172.261 183.168 165.713 198.312 143.133C203.919 134.068 208.389 129.14 215.937 121.061C215.937 121.061 211.494 128.779 211.494 128.949" stroke="#1F9D96" stroke-width="2"/>
<path d="M283.2 132.677C284.355 131.207 285.852 130.114 287.684 129.399C289.557 128.644 291.69 128.266 294.079 128.266V138.46C293.043 138.341 292.185 138.282 291.508 138.282C289.078 138.282 287.164 138.937 285.77 140.249C284.417 141.56 283.74 143.567 283.74 146.27V161.115H272.383V128.802H283.2V132.677Z" fill="url(#paint3_linear_13_3165)"/>
<path d="M204.317 150.31C204.317 150.439 203.049 152.829 201.411 155.862M201.411 155.862C199.577 159.259 197.277 163.464 195.772 166.202L201.411 155.862ZM201.411 155.862C202.694 155.769 203.711 155.4 204.607 154.753M211.152 148.601C210.6 147.434 210.125 147.554 209.101 148.601C207.427 151.55 206.209 153.596 204.607 154.753M204.607 154.753C205.555 155.687 202.334 161.247 204.607 161.589C205.602 161.738 207.963 158.327 210.475 154.411M210.475 154.411C213.701 149.383 215.937 143.304 218.329 143.304C220.722 143.304 216.967 150.365 210.475 154.411ZM210.475 154.411C210.147 158.538 211.494 158.171 212.177 158.171C212.861 158.171 216.962 152.873 220.38 147.063" stroke="#1F9D96" stroke-width="2"/>
<path d="M220.38 147.063C230.652 128.874 237.309 118.395 237.81 104C227.763 117.364 223.594 131.627 215.253 181.582C158.47 179.786 136.133 181.582 113.234 185.854C90.3355 190.127 138.32 209.86 193.38 181.582C205.625 175.293 235.418 153.557 235.93 153.557" stroke="#1F9D96" stroke-width="2"/>
<path d="M265.547 144.335C265.547 144.414 265.489 145.348 265.37 147.136H241.821C242.299 148.806 243.215 150.098 244.57 151.011C245.964 151.886 247.698 152.323 249.77 152.323C251.323 152.323 252.658 152.104 253.774 151.667C254.929 151.23 256.085 150.515 257.241 149.521L263.216 155.721C260.069 159.219 255.467 160.968 249.411 160.968C245.626 160.968 242.299 160.252 239.43 158.821C236.561 157.391 234.33 155.403 232.736 152.86C231.182 150.316 230.405 147.434 230.405 144.215C230.405 141.036 231.162 138.194 232.676 135.69C234.23 133.146 236.362 131.159 239.072 129.729C241.781 128.298 244.829 127.582 248.216 127.582C251.443 127.582 254.372 128.258 257.001 129.609C259.631 130.921 261.702 132.848 263.216 135.392C264.771 137.896 265.547 140.877 265.547 144.335ZM248.276 135.631C246.522 135.631 245.048 136.127 243.853 137.121C242.697 138.115 241.96 139.466 241.641 141.175H254.91C254.591 139.466 253.834 138.115 252.639 137.121C251.483 136.127 250.029 135.631 248.276 135.631Z" fill="url(#paint4_linear_13_3165)"/>
<path d="M196 385.5C300.125 385.5 384.5 300.862 384.5 196.5C384.5 92.1377 300.125 7.5 196 7.5C91.8748 7.5 7.5 92.1377 7.5 196.5C7.5 300.862 91.8748 385.5 196 385.5Z" stroke="#1F9D96" stroke-width="15"/>
<defs>
<linearGradient id="paint0_linear_13_3165" x1="204.803" y1="116.987" x2="204.803" y2="161.223" gradientUnits="userSpaceOnUse">
<stop stop-color="white"/>
<stop offset="1" stop-color="white" stop-opacity="0"/>
</linearGradient>
<linearGradient id="paint1_linear_13_3165" x1="163.094" y1="127.582" x2="163.094" y2="160.968" gradientUnits="userSpaceOnUse">
<stop stop-color="white"/>
<stop offset="1" stop-color="white" stop-opacity="0"/>
</linearGradient>
<linearGradient id="paint2_linear_13_3165" x1="118.576" y1="119.38" x2="118.576" y2="161.111" gradientUnits="userSpaceOnUse">
<stop stop-color="white"/>
<stop offset="1" stop-color="white" stop-opacity="0"/>
</linearGradient>
<linearGradient id="paint3_linear_13_3165" x1="283.231" y1="128.266" x2="283.231" y2="161.115" gradientUnits="userSpaceOnUse">
<stop stop-color="white"/>
<stop offset="1" stop-color="white" stop-opacity="0"/>
</linearGradient>
<linearGradient id="paint4_linear_13_3165" x1="247.976" y1="127.582" x2="247.976" y2="160.968" gradientUnits="userSpaceOnUse">
<stop stop-color="white"/>
<stop offset="1" stop-color="white" stop-opacity="0"/>
</linearGradient>
</defs>
</svg>
