<svg width="116" height="116" viewBox="0 0 116 116" fill="none" xmlns="http://www.w3.org/2000/svg">
<g id="gg:website">
<g id="Group">
<path id="Vector" fill-rule="evenodd" clip-rule="evenodd" d="M67.6667 33.8333C66.3848 33.8333 65.1555 34.3425 64.249 35.2489C63.3426 36.1553 62.8334 37.3847 62.8334 38.6666V77.3332C62.8334 78.6151 63.3426 79.8445 64.249 80.7509C65.1555 81.6574 66.3848 82.1666 67.6667 82.1666H87C88.2819 82.1666 89.5113 81.6574 90.4177 80.7509C91.3242 79.8445 91.8334 78.6151 91.8334 77.3332V38.6666C91.8334 37.3847 91.3242 36.1553 90.4177 35.2489C89.5113 34.3425 88.2819 33.8333 87 33.8333H67.6667ZM82.1667 43.4999H72.5V72.4999H82.1667V43.4999Z" fill="#1F9D96"/>
<path id="Vector_2" d="M29.0001 33.8333C27.7182 33.8333 26.4888 34.3425 25.5824 35.2489C24.676 36.1553 24.1667 37.3847 24.1667 38.6666C24.1667 39.9485 24.676 41.1778 25.5824 42.0843C26.4888 42.9907 27.7182 43.4999 29.0001 43.4999H48.3334C49.6153 43.4999 50.8447 42.9907 51.7511 42.0843C52.6575 41.1778 53.1667 39.9485 53.1667 38.6666C53.1667 37.3847 52.6575 36.1553 51.7511 35.2489C50.8447 34.3425 49.6153 33.8333 48.3334 33.8333H29.0001ZM29.0001 53.1666C27.7182 53.1666 26.4888 53.6758 25.5824 54.5822C24.676 55.4887 24.1667 56.718 24.1667 57.9999C24.1667 59.2818 24.676 60.5112 25.5824 61.4176C26.4888 62.324 27.7182 62.8333 29.0001 62.8333H48.3334C49.6153 62.8333 50.8447 62.324 51.7511 61.4176C52.6575 60.5112 53.1667 59.2818 53.1667 57.9999C53.1667 56.718 52.6575 55.4887 51.7511 54.5822C50.8447 53.6758 49.6153 53.1666 48.3334 53.1666H29.0001ZM24.1667 77.3332C24.1667 76.0514 24.676 74.822 25.5824 73.9156C26.4888 73.0091 27.7182 72.4999 29.0001 72.4999H48.3334C49.6153 72.4999 50.8447 73.0091 51.7511 73.9156C52.6575 74.822 53.1667 76.0514 53.1667 77.3332C53.1667 78.6151 52.6575 79.8445 51.7511 80.7509C50.8447 81.6574 49.6153 82.1666 48.3334 82.1666H29.0001C27.7182 82.1666 26.4888 81.6574 25.5824 80.7509C24.676 79.8445 24.1667 78.6151 24.1667 77.3332Z" fill="#1F9D96"/>
<path id="Vector_3" fill-rule="evenodd" clip-rule="evenodd" d="M19.3334 14.5C15.4877 14.5 11.7996 16.0277 9.08033 18.747C6.36105 21.4662 4.83337 25.1544 4.83337 29V87C4.83337 90.8456 6.36105 94.5338 9.08033 97.2531C11.7996 99.9723 15.4877 101.5 19.3334 101.5H96.6667C100.512 101.5 104.2 99.9723 106.92 97.2531C109.639 94.5338 111.167 90.8456 111.167 87V29C111.167 25.1544 109.639 21.4662 106.92 18.747C104.2 16.0277 100.512 14.5 96.6667 14.5H19.3334ZM96.6667 24.1667H19.3334C18.0515 24.1667 16.8221 24.6759 15.9157 25.5823C15.0093 26.4887 14.5 27.7181 14.5 29V87C14.5 88.2819 15.0093 89.5113 15.9157 90.4177C16.8221 91.3241 18.0515 91.8333 19.3334 91.8333H96.6667C97.9486 91.8333 99.178 91.3241 100.084 90.4177C100.991 89.5113 101.5 88.2819 101.5 87V29C101.5 27.7181 100.991 26.4887 100.084 25.5823C99.178 24.6759 97.9486 24.1667 96.6667 24.1667Z" fill="#1F9D96"/>
</g>
</g>
</svg>
