<svg width="45" height="45" viewBox="0 0 45 45" fill="none" xmlns="http://www.w3.org/2000/svg">
<rect width="45" height="45" rx="6" fill="#9D9D9D" fill-opacity="0.5"/>
<path d="M16.725 8.75H28.275C32.675 8.75 36.25 12.325 36.25 16.725V28.275C36.25 30.3901 35.4098 32.4186 33.9142 33.9142C32.4186 35.4098 30.3901 36.25 28.275 36.25H16.725C12.325 36.25 8.75 32.675 8.75 28.275V16.725C8.75 14.6099 9.59022 12.5814 11.0858 11.0858C12.5814 9.59022 14.6099 8.75 16.725 8.75ZM16.45 11.5C15.1372 11.5 13.8781 12.0215 12.9498 12.9498C12.0215 13.8781 11.5 15.1372 11.5 16.45V28.55C11.5 31.2862 13.7137 33.5 16.45 33.5H28.55C29.8628 33.5 31.1219 32.9785 32.0502 32.0502C32.9785 31.1219 33.5 29.8628 33.5 28.55V16.45C33.5 13.7137 31.2862 11.5 28.55 11.5H16.45ZM29.7188 13.5625C30.1746 13.5625 30.6118 13.7436 30.9341 14.0659C31.2564 14.3882 31.4375 14.8254 31.4375 15.2812C31.4375 15.7371 31.2564 16.1743 30.9341 16.4966C30.6118 16.8189 30.1746 17 29.7188 17C29.2629 17 28.8257 16.8189 28.5034 16.4966C28.1811 16.1743 28 15.7371 28 15.2812C28 14.8254 28.1811 14.3882 28.5034 14.0659C28.8257 13.7436 29.2629 13.5625 29.7188 13.5625ZM22.5 15.625C24.3234 15.625 26.072 16.3493 27.3614 17.6386C28.6507 18.928 29.375 20.6766 29.375 22.5C29.375 24.3234 28.6507 26.072 27.3614 27.3614C26.072 28.6507 24.3234 29.375 22.5 29.375C20.6766 29.375 18.928 28.6507 17.6386 27.3614C16.3493 26.072 15.625 24.3234 15.625 22.5C15.625 20.6766 16.3493 18.928 17.6386 17.6386C18.928 16.3493 20.6766 15.625 22.5 15.625ZM22.5 18.375C21.406 18.375 20.3568 18.8096 19.5832 19.5832C18.8096 20.3568 18.375 21.406 18.375 22.5C18.375 23.594 18.8096 24.6432 19.5832 25.4168C20.3568 26.1904 21.406 26.625 22.5 26.625C23.594 26.625 24.6432 26.1904 25.4168 25.4168C26.1904 24.6432 26.625 23.594 26.625 22.5C26.625 21.406 26.1904 20.3568 25.4168 19.5832C24.6432 18.8096 23.594 18.375 22.5 18.375Z" fill="white"/>
</svg>
