<svg width="48" height="48" viewBox="0 0 48 48" fill="none" xmlns="http://www.w3.org/2000/svg">
<path d="M24 44C21.2667 44 18.6833 43.4747 16.25 42.424C13.8167 41.3733 11.6913 39.94 9.874 38.124C8.058 36.308 6.62467 34.1833 5.574 31.75C4.52334 29.3167 3.99867 26.7333 4 24C4 21.2333 4.52534 18.6413 5.576 16.224C6.62667 13.8067 8.06 11.6907 9.876 9.876C11.692 8.05867 13.816 6.62533 16.248 5.576C18.68 4.52667 21.264 4.00133 24 4C26.7667 4 29.3587 4.52533 31.776 5.576C34.1933 6.62667 36.3093 8.06 38.124 9.876C39.9413 11.692 41.3747 13.8087 42.424 16.226C43.4733 18.6433 43.9987 21.2347 44 24C44 26.7333 43.4747 29.3167 42.424 31.75C41.3733 34.1833 39.94 36.3087 38.124 38.126C36.308 39.942 34.1913 41.3753 31.774 42.426C29.3567 43.4767 26.7653 44.0013 24 44ZM24 39.9C24.8667 38.7 25.6167 37.45 26.25 36.15C26.8833 34.85 27.4 33.4667 27.8 32H20.2C20.6 33.4667 21.1167 34.85 21.75 36.15C22.3833 37.45 23.1333 38.7 24 39.9ZM18.8 39.1C18.2 38 17.6747 36.858 17.224 35.674C16.7733 34.49 16.3987 33.2653 16.1 32H10.2C11.1667 33.6667 12.3753 35.1167 13.826 36.35C15.2767 37.5833 16.9347 38.5 18.8 39.1ZM29.2 39.1C31.0667 38.5 32.7253 37.5833 34.176 36.35C35.6267 35.1167 36.8347 33.6667 37.8 32H31.9C31.6 33.2667 31.2253 34.492 30.776 35.676C30.3267 36.86 29.8013 38.0013 29.2 39.1ZM8.5 28H15.3C15.2 27.3333 15.1247 26.6747 15.074 26.024C15.0233 25.3733 14.9987 24.6987 15 24C15 23.3 15.0253 22.6253 15.076 21.976C15.1267 21.3267 15.2013 20.668 15.3 20H8.5C8.33334 20.6667 8.208 21.3253 8.124 21.976C8.04 22.6267 7.99867 23.3013 8 24C8 24.7 8.042 25.3747 8.126 26.024C8.21 26.6733 8.33467 27.332 8.5 28ZM19.3 28H28.7C28.8 27.3333 28.8753 26.6747 28.926 26.024C28.9767 25.3733 29.0013 24.6987 29 24C29 23.3 28.9747 22.6253 28.924 21.976C28.8733 21.3267 28.7987 20.668 28.7 20H19.3C19.2 20.6667 19.1247 21.3253 19.074 21.976C19.0233 22.6267 18.9987 23.3013 19 24C19 24.7 19.0253 25.3747 19.076 26.024C19.1267 26.6733 19.2013 27.332 19.3 28ZM32.7 28H39.5C39.6667 27.3333 39.792 26.6747 39.876 26.024C39.96 25.3733 40.0013 24.6987 40 24C40 23.3 39.958 22.6253 39.874 21.976C39.79 21.3267 39.6653 20.668 39.5 20H32.7C32.8 20.6667 32.8753 21.3253 32.926 21.976C32.9767 22.6267 33.0013 23.3013 33 24C33 24.7 32.9747 25.3747 32.924 26.024C32.8733 26.6733 32.7987 27.332 32.7 28ZM31.9 16H37.8C36.8333 14.3333 35.6253 12.8833 34.176 11.65C32.7267 10.4167 31.068 9.5 29.2 8.9C29.8 10 30.3253 11.142 30.776 12.326C31.2267 13.51 31.6013 14.7347 31.9 16ZM20.2 16H27.8C27.4 14.5333 26.8833 13.15 26.25 11.85C25.6167 10.55 24.8667 9.3 24 8.1C23.1333 9.3 22.3833 10.55 21.75 11.85C21.1167 13.15 20.6 14.5333 20.2 16ZM10.2 16H16.1C16.4 14.7333 16.7753 13.508 17.226 12.324C17.6767 11.14 18.2013 9.99867 18.8 8.9C16.9333 9.5 15.2747 10.4167 13.824 11.65C12.3733 12.8833 11.1653 14.3333 10.2 16Z" fill="white"/>
</svg>
