<svg width="123" height="119" viewBox="0 0 123 119" fill="none" xmlns="http://www.w3.org/2000/svg">
<g filter="url(#filter0_d_203_85)">
<rect x="24" y="24" width="74.9651" height="70.571" rx="19" fill="#D0BFC4"/>
</g>
<g clip-path="url(#clip0_203_85)">
<path d="M71.421 54.9166L77.3844 60.5305C78.3521 61.4294 79.1214 62.4995 79.6479 63.6794C80.1745 64.8592 80.4479 66.1255 80.4524 67.4053C80.457 68.685 80.1926 69.953 79.6745 71.1361C79.1563 72.3193 78.3947 73.3943 77.4334 74.2992C76.4722 75.2041 75.3302 75.9211 74.0734 76.4088C72.8166 76.8966 71.4697 77.1455 70.1103 77.1412C68.7508 77.1369 67.4057 76.8795 66.1524 76.3839C64.8991 75.8882 63.7623 75.164 62.8075 74.253L60.8209 72.3829C60.5523 72.1389 60.338 71.847 60.1905 71.5242C60.043 71.2014 59.9653 70.8542 59.9619 70.5028C59.9584 70.1514 60.0294 69.8029 60.1706 69.4776C60.3118 69.1523 60.5204 68.8567 60.7842 68.6081C61.048 68.3595 61.3618 68.1629 61.7072 68.0297C62.0526 67.8964 62.4228 67.8293 62.796 67.8322C63.1693 67.8351 63.5382 67.9079 63.8813 68.0465C64.2243 68.185 64.5346 68.3865 64.7941 68.6391L66.7844 70.511C67.6645 71.3321 68.8542 71.7915 70.0933 71.7888C71.3324 71.7861 72.5198 71.3214 73.3959 70.4965C74.2719 69.6716 74.7652 68.5536 74.7677 67.3872C74.7702 66.2207 74.2818 65.1008 73.4094 64.2726L67.4459 58.6586C66.8014 58.0516 65.9827 57.6348 65.0902 57.4593C64.1977 57.2838 63.2702 57.3572 62.4214 57.6706C62.1178 57.7836 61.8367 57.9 61.5706 58.0164L60.701 58.3993C59.539 58.8933 58.645 59.105 57.5074 58.0358C55.8732 56.4974 56.2968 55.0772 58.289 53.7839C60.2737 52.4991 62.6737 51.9089 65.0724 52.1158C67.4712 52.3227 69.7173 53.3136 71.421 54.9166ZM60.1575 44.3133L62.144 46.1835C62.6564 46.6823 62.9401 47.3507 62.934 48.0446C62.928 48.7385 62.6326 49.4024 62.1117 49.8933C61.5907 50.3842 60.8857 50.6628 60.1487 50.6692C59.4116 50.6755 58.7013 50.4091 58.1709 49.9272L56.1824 48.0571C55.7504 47.6357 55.2335 47.2996 54.6619 47.0683C54.0903 46.837 53.4756 46.7151 52.8535 46.7099C52.2314 46.7046 51.6144 46.816 51.0385 47.0377C50.4626 47.2593 49.9394 47.5867 49.4994 48.0007C49.0593 48.4147 48.7113 48.907 48.4755 49.449C48.2398 49.991 48.1211 50.5718 48.1263 51.1574C48.1315 51.7431 48.2606 52.3219 48.506 52.8601C48.7514 53.3983 49.1082 53.8851 49.5555 54.2921L55.519 59.906C56.1636 60.513 56.9823 60.9298 57.8748 61.1053C58.7672 61.2808 59.6947 61.2074 60.5435 60.894C60.8471 60.7811 61.1283 60.6646 61.3944 60.5482L62.264 60.1653C63.4259 59.6713 64.3218 59.4596 65.4575 60.5288C67.0917 62.0672 66.6682 63.4874 64.676 64.7807C62.6912 66.0655 60.2912 66.6557 57.8925 66.4488C55.4938 66.2419 53.2477 65.251 51.544 63.648L45.5805 58.0341C44.6128 57.1352 43.8436 56.0651 43.317 54.8852C42.7905 53.7054 42.5171 52.4391 42.5125 51.1594C42.508 49.8796 42.7724 48.6117 43.2905 47.4285C43.8086 46.2453 44.5702 45.1704 45.5315 44.2654C46.4928 43.3605 47.6347 42.6435 48.8915 42.1558C50.1483 41.668 51.4953 41.4191 52.8547 41.4234C54.2141 41.4277 55.5592 41.6851 56.8125 42.1807C58.0659 42.6764 59.2027 43.4024 60.1575 44.3133Z" fill="white"/>
</g>
<defs>
<filter id="filter0_d_203_85" x="0" y="0" width="122.965" height="118.571" filterUnits="userSpaceOnUse" color-interpolation-filters="sRGB">
<feFlood flood-opacity="0" result="BackgroundImageFix"/>
<feColorMatrix in="SourceAlpha" type="matrix" values="0 0 0 0 0 0 0 0 0 0 0 0 0 0 0 0 0 0 127 0" result="hardAlpha"/>
<feOffset/>
<feGaussianBlur stdDeviation="12"/>
<feComposite in2="hardAlpha" operator="out"/>
<feColorMatrix type="matrix" values="0 0 0 0 0.815686 0 0 0 0 0.74902 0 0 0 0 0.768627 0 0 0 1 0"/>
<feBlend mode="normal" in2="BackgroundImageFix" result="effect1_dropShadow_203_85"/>
<feBlend mode="normal" in="SourceGraphic" in2="effect1_dropShadow_203_85" result="shape"/>
</filter>
<clipPath id="clip0_203_85">
<rect width="44.979" height="42.3426" fill="white" transform="translate(38.9929 38.1138)"/>
</clipPath>
</defs>
</svg>
