<svg width="124" height="119" viewBox="0 0 124 119" fill="none" xmlns="http://www.w3.org/2000/svg">
<g filter="url(#filter0_d_13_3340)">
<rect x="24" y="24" width="75.1176" height="70.8061" rx="19" fill="#4682B4"/>
</g>
<g clip-path="url(#clip0_13_3340)">
<path d="M71.5174 55.0207L77.493 60.6533C78.4626 61.5551 79.2335 62.6288 79.7611 63.8126C80.2887 64.9964 80.5627 66.2669 80.5672 67.5509C80.5718 68.8349 80.3068 70.1071 79.7877 71.2942C79.2685 72.4813 78.5053 73.5599 77.5421 74.4678C76.5789 75.3758 75.4346 76.0951 74.1752 76.5845C72.9158 77.0739 71.5662 77.3236 70.204 77.3193C68.8418 77.315 67.494 77.0568 66.2381 76.5594C64.9822 76.0621 63.8431 75.3355 62.8864 74.4215L60.8958 72.5452C60.6266 72.3004 60.4118 72.0075 60.2641 71.6836C60.1163 71.3597 60.0384 71.0113 60.035 70.6588C60.0315 70.3062 60.1026 69.9565 60.2441 69.6301C60.3856 69.3038 60.5946 69.0072 60.859 68.7578C61.1233 68.5084 61.4377 68.3111 61.7838 68.1774C62.13 68.0438 62.5009 67.9764 62.8749 67.9793C63.2489 67.9822 63.6186 68.0553 63.9623 68.1943C64.3061 68.3333 64.617 68.5354 64.877 68.7889L66.8714 70.667C67.7533 71.4908 68.9454 71.9518 70.187 71.9491C71.4286 71.9464 72.6185 71.4802 73.4963 70.6525C74.3741 69.8248 74.8684 68.7031 74.8709 67.5328C74.8735 66.3624 74.3841 65.2388 73.5099 64.4078L67.5343 58.7752C66.8884 58.1661 66.068 57.7479 65.1737 57.5718C64.2794 57.3957 63.35 57.4694 62.4995 57.7839C62.1953 57.8972 61.9136 58.014 61.6469 58.1308L60.7756 58.5149C59.6112 59.0106 58.7155 59.223 57.5756 58.1503C55.938 56.6067 56.3624 55.1817 58.3587 53.8842C60.3475 52.5951 62.7523 52.0029 65.1559 52.2105C67.5595 52.4181 69.8102 53.4123 71.5174 55.0207ZM60.231 44.382L62.2216 46.2584C62.735 46.7589 63.0192 47.4295 63.0132 48.1257C63.0071 48.8219 62.7112 49.488 62.1891 49.9806C61.6671 50.4731 60.9607 50.7527 60.2221 50.759C59.4836 50.7654 58.7719 50.4981 58.2403 50.0147L56.2479 48.1383C55.8149 47.7155 55.2969 47.3782 54.7242 47.1462C54.1515 46.9141 53.5355 46.7918 52.9121 46.7866C52.2887 46.7813 51.6705 46.8931 51.0934 47.1155C50.5164 47.3378 49.9921 47.6663 49.5512 48.0817C49.1102 48.4971 48.7615 48.9911 48.5252 49.5349C48.289 50.0787 48.1701 50.6614 48.1753 51.249C48.1805 51.8366 48.3099 52.4173 48.5558 52.9573C48.8017 53.4973 49.1592 53.9857 49.6075 54.394L55.5831 60.0266C56.2289 60.6357 57.0493 61.0539 57.9436 61.23C58.8379 61.4061 59.7673 61.3324 60.6178 61.0179C60.922 60.9046 61.2037 60.7878 61.4704 60.671L62.3418 60.2869C63.5061 59.7912 64.4037 59.5788 65.5418 60.6515C67.1793 62.1951 66.7549 63.6201 64.7587 64.9176C62.7699 66.2067 60.365 66.7989 57.9614 66.5913C55.5578 66.3837 53.3071 65.3895 51.5999 63.7811L45.6243 58.1485C44.6547 57.2467 43.8839 56.173 43.3563 54.9892C42.8286 53.8054 42.5547 52.5349 42.5501 51.2509C42.5455 49.9669 42.8105 48.6947 43.3297 47.5076C43.8488 46.3205 44.612 45.2419 45.5752 44.334C46.5385 43.426 47.6827 42.7067 48.9421 42.2173C50.2015 41.7279 51.5511 41.4782 52.9133 41.4825C54.2755 41.4868 55.6234 41.745 56.8792 42.2424C58.1351 42.7397 59.2742 43.468 60.231 44.382Z" fill="white"/>
</g>
<defs>
<filter id="filter0_d_13_3340" x="0" y="0" width="123.118" height="118.806" filterUnits="userSpaceOnUse" color-interpolation-filters="sRGB">
<feFlood flood-opacity="0" result="BackgroundImageFix"/>
<feColorMatrix in="SourceAlpha" type="matrix" values="0 0 0 0 0 0 0 0 0 0 0 0 0 0 0 0 0 0 127 0" result="hardAlpha"/>
<feOffset/>
<feGaussianBlur stdDeviation="12"/>
<feComposite in2="hardAlpha" operator="out"/>
<feColorMatrix type="matrix" values="0 0 0 0 0.27451 0 0 0 0 0.509804 0 0 0 0 0.705882 0 0 0 1 0"/>
<feBlend mode="normal" in2="BackgroundImageFix" result="effect1_dropShadow_13_3340"/>
<feBlend mode="normal" in="SourceGraphic" in2="effect1_dropShadow_13_3340" result="shape"/>
</filter>
<clipPath id="clip0_13_3340">
<rect width="45.0706" height="42.4837" fill="white" transform="translate(39.0234 38.1616)"/>
</clipPath>
</defs>
</svg>
