<svg width="30" height="30" viewBox="0 0 30 30" fill="none" xmlns="http://www.w3.org/2000/svg">
<path d="M8.67505 6.25C8.67472 6.91304 8.41101 7.54879 7.94193 8.0174C7.47286 8.48601 6.83684 8.74908 6.1738 8.74875C5.51076 8.74842 4.875 8.48471 4.4064 8.01563C3.93779 7.54656 3.67472 6.91054 3.67505 6.2475C3.67538 5.58446 3.93909 4.9487 4.40817 4.4801C4.87724 4.01149 5.51326 3.74842 6.1763 3.74875C6.83934 3.74908 7.47509 4.01279 7.9437 4.48187C8.41231 4.95094 8.67538 5.58696 8.67505 6.25ZM8.75005 10.6H3.75005V26.25H8.75005V10.6ZM16.65 10.6H11.675V26.25H16.6V18.0375C16.6 13.4625 22.5625 13.0375 22.5625 18.0375V26.25H27.5V16.3375C27.5 8.625 18.675 8.9125 16.6 12.7L16.65 10.6Z" fill="white"/>
</svg>
