<svg width="94" height="94" viewBox="0 0 94 94" fill="none" xmlns="http://www.w3.org/2000/svg">
<rect width="94" height="94" rx="47" fill="url(#paint0_linear_13_3172)"/>
<path d="M62.3333 26C58.474 26 55.3333 29.1407 55.3333 33C55.3333 34.1714 55.6507 35.2587 56.1593 36.2317L53.5553 39.2697C52.015 38.2234 50.1954 37.6648 48.3333 37.6667C46.609 37.6667 45.0083 38.1707 43.62 38.9874L40.3207 35.688C40.9761 34.5084 41.3243 33.1828 41.3333 31.8334C41.3333 27.33 37.67 23.6667 33.1667 23.6667C28.6633 23.6667 25 27.33 25 31.8334C25 36.3367 28.6633 40 33.1667 40C34.569 40 35.8687 39.6127 37.0213 38.9874L40.3207 42.2867C39.466 43.7111 39.0099 45.3389 39 47C39 49.3264 39.8867 51.431 41.2983 53.069L37.3503 57.017L37.4087 57.0754C36.4547 56.5936 35.402 56.3396 34.3333 56.3334C30.474 56.3334 27.3333 59.474 27.3333 63.3334C27.3333 67.1927 30.474 70.3334 34.3333 70.3334C38.1927 70.3334 41.3333 67.1927 41.3333 63.3334C41.3333 62.2227 41.051 61.189 40.5913 60.258L40.6497 60.3164L45.209 55.757C46.1913 56.107 47.232 56.3334 48.3333 56.3334C53.4807 56.3334 57.6667 52.1474 57.6667 47C57.6566 45.5506 57.3057 44.1238 56.6423 42.835L59.566 39.4237C60.4153 39.7924 61.3487 40 62.3333 40C66.1927 40 69.3333 36.8594 69.3333 33C69.3333 29.1407 66.1927 26 62.3333 26V26ZM34.3333 65.6667C33.7145 65.6667 33.121 65.4209 32.6834 64.9833C32.2458 64.5457 32 63.9522 32 63.3334C32 62.7145 32.2458 62.121 32.6834 61.6834C33.121 61.2459 33.7145 61 34.3333 61C34.9522 61 35.5457 61.2459 35.9832 61.6834C36.4208 62.121 36.6667 62.7145 36.6667 63.3334C36.6667 63.9522 36.4208 64.5457 35.9832 64.9833C35.5457 65.4209 34.9522 65.6667 34.3333 65.6667ZM29.6667 31.8334C29.6667 29.9037 31.237 28.3334 33.1667 28.3334C35.0963 28.3334 36.6667 29.9037 36.6667 31.8334C36.6667 33.763 35.0963 35.3334 33.1667 35.3334C31.237 35.3334 29.6667 33.763 29.6667 31.8334ZM48.3333 51.6667C45.7597 51.6667 43.6667 49.5737 43.6667 47C43.6667 44.4264 45.7597 42.3334 48.3333 42.3334C50.907 42.3334 53 44.4264 53 47C53 49.5737 50.907 51.6667 48.3333 51.6667ZM62.3333 35.3334C61.7145 35.3334 61.121 35.0875 60.6834 34.6499C60.2458 34.2124 60 33.6189 60 33C60 32.3812 60.2458 31.7877 60.6834 31.3501C61.121 30.9125 61.7145 30.6667 62.3333 30.6667C62.9522 30.6667 63.5457 30.9125 63.9832 31.3501C64.4208 31.7877 64.6667 32.3812 64.6667 33C64.6667 33.6189 64.4208 34.2124 63.9832 34.6499C63.5457 35.0875 62.9522 35.3334 62.3333 35.3334Z" fill="white"/>
<defs>
<linearGradient id="paint0_linear_13_3172" x1="47" y1="0" x2="47" y2="94" gradientUnits="userSpaceOnUse">
<stop stop-color="#1F9D96"/>
<stop offset="1" stop-color="#9D9D9D"/>
</linearGradient>
</defs>
</svg>
