<svg width="94" height="94" viewBox="0 0 94 94" fill="none" xmlns="http://www.w3.org/2000/svg">
<rect width="94" height="94" rx="47" fill="url(#paint0_linear_13_3178)"/>
<path fill-rule="evenodd" clip-rule="evenodd" d="M51.6666 35.3333C51.0477 35.3333 50.4543 35.5791 50.0167 36.0167C49.5791 36.4543 49.3333 37.0478 49.3333 37.6666V56.3333C49.3333 56.9522 49.5791 57.5456 50.0167 57.9832C50.4543 58.4208 51.0477 58.6666 51.6666 58.6666H60.9999C61.6188 58.6666 62.2123 58.4208 62.6498 57.9832C63.0874 57.5456 63.3333 56.9522 63.3333 56.3333V37.6666C63.3333 37.0478 63.0874 36.4543 62.6498 36.0167C62.2123 35.5791 61.6188 35.3333 60.9999 35.3333H51.6666ZM58.6666 40H53.9999V54H58.6666V40Z" fill="white"/>
<path d="M32.9998 35.3333C32.381 35.3333 31.7875 35.5791 31.3499 36.0167C30.9123 36.4543 30.6665 37.0478 30.6665 37.6666C30.6665 38.2855 30.9123 38.879 31.3499 39.3166C31.7875 39.7541 32.381 40 32.9998 40H42.3332C42.952 40 43.5455 39.7541 43.9831 39.3166C44.4207 38.879 44.6665 38.2855 44.6665 37.6666C44.6665 37.0478 44.4207 36.4543 43.9831 36.0167C43.5455 35.5791 42.952 35.3333 42.3332 35.3333H32.9998ZM32.9998 44.6666C32.381 44.6666 31.7875 44.9125 31.3499 45.3501C30.9123 45.7877 30.6665 46.3811 30.6665 47C30.6665 47.6188 30.9123 48.2123 31.3499 48.6499C31.7875 49.0875 32.381 49.3333 32.9998 49.3333H42.3332C42.952 49.3333 43.5455 49.0875 43.9831 48.6499C44.4207 48.2123 44.6665 47.6188 44.6665 47C44.6665 46.3811 44.4207 45.7877 43.9831 45.3501C43.5455 44.9125 42.952 44.6666 42.3332 44.6666H32.9998ZM30.6665 56.3333C30.6665 55.7145 30.9123 55.121 31.3499 54.6834C31.7875 54.2458 32.381 54 32.9998 54H42.3332C42.952 54 43.5455 54.2458 43.9831 54.6834C44.4207 55.121 44.6665 55.7145 44.6665 56.3333C44.6665 56.9522 44.4207 57.5456 43.9831 57.9832C43.5455 58.4208 42.952 58.6666 42.3332 58.6666H32.9998C32.381 58.6666 31.7875 58.4208 31.3499 57.9832C30.9123 57.5456 30.6665 56.9522 30.6665 56.3333Z" fill="white"/>
<path fill-rule="evenodd" clip-rule="evenodd" d="M28.3333 26C26.4767 26 24.6963 26.7375 23.3835 28.0503C22.0707 29.363 21.3333 31.1435 21.3333 33V61C21.3333 62.8565 22.0707 64.637 23.3835 65.9497C24.6963 67.2625 26.4767 68 28.3333 68H65.6666C67.5231 68 69.3036 67.2625 70.6163 65.9497C71.9291 64.637 72.6666 62.8565 72.6666 61V33C72.6666 31.1435 71.9291 29.363 70.6163 28.0503C69.3036 26.7375 67.5231 26 65.6666 26H28.3333ZM65.6666 30.6667H28.3333C27.7144 30.6667 27.1209 30.9125 26.6833 31.3501C26.2458 31.7877 25.9999 32.3812 25.9999 33V61C25.9999 61.6188 26.2458 62.2123 26.6833 62.6499C27.1209 63.0875 27.7144 63.3333 28.3333 63.3333H65.6666C66.2854 63.3333 66.8789 63.0875 67.3165 62.6499C67.7541 62.2123 67.9999 61.6188 67.9999 61V33C67.9999 32.3812 67.7541 31.7877 67.3165 31.3501C66.8789 30.9125 66.2854 30.6667 65.6666 30.6667Z" fill="white"/>
<defs>
<linearGradient id="paint0_linear_13_3178" x1="47" y1="0" x2="47" y2="94" gradientUnits="userSpaceOnUse">
<stop stop-color="#1F9D96"/>
<stop offset="1" stop-color="#9D9D9D"/>
</linearGradient>
</defs>
</svg>
