<svg width="94" height="94" viewBox="0 0 94 94" fill="none" xmlns="http://www.w3.org/2000/svg">
<rect width="94" height="94" rx="47" fill="url(#paint0_linear_13_3194)"/>
<path d="M34.0083 23.8393C34.3054 23.9821 34.556 24.206 34.7315 24.485C34.9069 24.7641 35 25.087 35 25.4166C35 27.3533 35.728 28.4686 36.6403 29.8266L36.708 29.9246C37.4826 31.0773 38.5 32.587 38.5 34.75C38.5 36.9573 37.387 38.9033 35.6906 40.0583C36.1363 40.4316 36.5306 40.8913 36.8713 41.442C37.982 43.2386 38.5 45.985 38.5 49.9283C38.5 53.923 37.9633 58.7203 37.0883 62.5517C36.6543 64.4557 36.1153 66.2126 35.4736 67.531C35.1707 68.1869 34.7694 68.7928 34.2836 69.3276C33.803 69.82 33.0633 70.345 32.0833 70.345C31.1033 70.345 30.3636 69.82 29.8853 69.3276C29.3981 68.7939 28.9967 68.1878 28.6953 67.531C28.0513 66.2103 27.5123 64.4556 27.0783 62.5493C26.1682 58.4024 25.695 54.1715 25.6666 49.926C25.6666 45.9826 26.1846 43.2386 27.2953 41.442C27.6122 40.9205 28.0108 40.4533 28.476 40.0583C27.6098 39.4702 26.9008 38.6789 26.4111 37.7536C25.9214 36.8282 25.6658 35.7969 25.6666 34.75C25.6666 33.8913 25.6666 32.4143 26.5603 30.508C27.4353 28.6413 29.099 26.497 32.1556 24.0493C32.4132 23.8432 32.7239 23.7142 33.0517 23.677C33.3795 23.6399 33.7111 23.6961 34.0083 23.8393ZM44.3333 53.8063C43.0971 53.599 41.8947 53.2254 40.7586 52.6956C40.8076 51.7483 40.8333 50.8196 40.8333 49.9283C40.8333 48.981 40.8053 48.0756 40.7446 47.2123C41.7783 48.064 42.9986 48.6963 44.3333 49.0393V43.5C44.3333 42.5717 44.702 41.6815 45.3584 41.0251C46.0148 40.3687 46.905 40 47.8333 40H56C56.0002 38.2196 55.4912 36.4764 54.5331 34.9758C53.5749 33.4753 52.2076 32.2801 50.5924 31.5313C48.9772 30.7824 47.1816 30.5112 45.4172 30.7495C43.6529 30.9878 41.9936 31.7258 40.635 32.8763C40.2313 30.977 39.2933 29.5863 38.6936 28.6973L38.6003 28.5573C40.6967 27.0795 43.1588 26.206 45.7178 26.0322C48.2769 25.8583 50.8345 26.3908 53.1115 27.5716C55.3884 28.7523 57.2973 30.5359 58.6296 32.7277C59.962 34.9194 60.6666 37.4351 60.6666 40H68.8333C69.7616 40 70.6518 40.3687 71.3082 41.0251C71.9645 41.6815 72.3333 42.5717 72.3333 43.5V64.5C72.3333 65.4282 71.9645 66.3185 71.3082 66.9749C70.6518 67.6312 69.7616 68 68.8333 68H47.8333C46.905 68 46.0148 67.6312 45.3584 66.9749C44.702 66.3185 44.3333 65.4282 44.3333 64.5V53.8063ZM49 53.8063V63.3333H67.6666V44.6666H59.871C59.0369 47.0205 57.5892 49.1088 55.6776 50.7156C53.7659 52.3224 51.4598 53.3894 48.9976 53.8063H49ZM54.7516 44.6666H49V49.0393C50.2007 48.7283 51.3277 48.1816 52.3151 47.4309C53.3026 46.6802 54.1308 45.7405 54.7516 44.6666Z" fill="white"/>
<defs>
<linearGradient id="paint0_linear_13_3194" x1="47" y1="0" x2="47" y2="94" gradientUnits="userSpaceOnUse">
<stop stop-color="#1F9D96"/>
<stop offset="1" stop-color="#9D9D9D"/>
</linearGradient>
</defs>
</svg>
