<svg width="94" height="94" viewBox="0 0 94 94" fill="none" xmlns="http://www.w3.org/2000/svg">
<rect width="94" height="94" rx="47" fill="url(#paint0_linear_13_3187)"/>
<path d="M66.6668 26H29.3334C28.0957 26 26.9088 26.4917 26.0336 27.3668C25.1584 28.242 24.6667 29.429 24.6667 30.6667V40C24.6667 41.2377 25.1584 42.4247 26.0336 43.2998C26.9088 44.175 28.0957 44.6667 29.3334 44.6667H66.6668C67.9044 44.6667 69.0914 44.175 69.9666 43.2998C70.8418 42.4247 71.3334 41.2377 71.3334 40V30.6667C71.3334 29.429 70.8418 28.242 69.9666 27.3668C69.0914 26.4917 67.9044 26 66.6668 26ZM29.3334 40V30.6667H66.6668V40H29.3334ZM66.6668 49.3333H29.3334C28.0957 49.3333 26.9088 49.825 26.0336 50.7002C25.1584 51.5753 24.6667 52.7623 24.6667 54V63.3333C24.6667 64.571 25.1584 65.758 26.0336 66.6332C26.9088 67.5083 28.0957 68 29.3334 68H66.6668C67.9044 68 69.0914 67.5083 69.9666 66.6332C70.8418 65.758 71.3334 64.571 71.3334 63.3333V54C71.3334 52.7623 70.8418 51.5753 69.9666 50.7002C69.0914 49.825 67.9044 49.3333 66.6668 49.3333ZM29.3334 63.3333V54H66.6668V63.3333H29.3334Z" fill="white"/>
<path d="M59.6667 33H64.3334V37.6667H59.6667V33ZM52.6667 33H57.3334V37.6667H52.6667V33ZM59.6667 56.3333H64.3334V61H59.6667V56.3333ZM52.6667 56.3333H57.3334V61H52.6667V56.3333Z" fill="white"/>
<defs>
<linearGradient id="paint0_linear_13_3187" x1="47" y1="0" x2="47" y2="94" gradientUnits="userSpaceOnUse">
<stop stop-color="#1F9D96"/>
<stop offset="1" stop-color="#9D9D9D"/>
</linearGradient>
</defs>
</svg>
