<svg width="24" height="24" viewBox="0 0 24 24" fill="none" xmlns="http://www.w3.org/2000/svg">
<path fill-rule="evenodd" clip-rule="evenodd" d="M19 13H7.135L10.768 17.36C11.122 17.784 11.064 18.415 10.64 18.768C10.215 19.122 9.585 19.064 9.231 18.64L4.231 12.64C4.192 12.593 4.173 12.538 4.144 12.486C4.12 12.444 4.091 12.408 4.073 12.362C4.028 12.247 4.001 12.126 4.001 12.004C4.001 12.003 4 12.001 4 12C4 11.999 4.001 11.997 4.001 11.996C4.001 11.874 4.028 11.753 4.073 11.638C4.091 11.592 4.12 11.556 4.144 11.514C4.173 11.462 4.192 11.407 4.231 11.36L9.231 5.36C9.43 5.123 9.714 5 10 5C10.226 5 10.453 5.076 10.64 5.232C11.064 5.585 11.122 6.216 10.768 6.64L7.135 11H19C19.552 11 20 11.448 20 12C20 12.552 19.552 13 19 13Z" fill="#FBFBFB"/>
</svg>
