<svg width="28" height="27" viewBox="0 0 28 27" fill="none" xmlns="http://www.w3.org/2000/svg">
<path d="M21.1723 10.2128L25.4961 14.2883C26.1977 14.9408 26.7554 15.7178 27.1372 16.5743C27.5189 17.4309 27.7172 18.3501 27.7205 19.2792C27.7238 20.2082 27.5321 21.1287 27.1564 21.9877C26.7808 22.8466 26.2285 23.627 25.5316 24.284C24.8346 24.9409 24.0067 25.4615 23.0955 25.8156C22.1842 26.1697 21.2077 26.3504 20.222 26.3472C19.2364 26.3441 18.2612 26.1573 17.3525 25.7974C16.4437 25.4376 15.6195 24.9118 14.9273 24.2505L13.4869 22.8928C13.2922 22.7157 13.1368 22.5038 13.0299 22.2694C12.9229 22.0351 12.8666 21.783 12.8641 21.5279C12.8616 21.2728 12.9131 21.0198 13.0154 20.7836C13.1178 20.5475 13.269 20.3329 13.4603 20.1524C13.6516 19.972 13.8791 19.8292 14.1295 19.7325C14.38 19.6358 14.6483 19.587 14.919 19.5891C15.1896 19.5912 15.4571 19.6441 15.7058 19.7447C15.9545 19.8453 16.1795 19.9915 16.3676 20.1749L17.8107 21.5339C18.4488 22.13 19.3114 22.4635 20.2097 22.4615C21.1081 22.4596 21.9691 22.1222 22.6042 21.5234C23.2394 20.9245 23.597 20.1129 23.5988 19.2661C23.6007 18.4193 23.2466 17.6062 22.614 17.0049L18.2903 12.9294C17.823 12.4887 17.2294 12.1861 16.5823 12.0587C15.9352 11.9313 15.2628 11.9846 14.6474 12.2121C14.4272 12.2941 14.2234 12.3786 14.0305 12.4631L13.4 12.7411C12.5575 13.0997 11.9094 13.2534 11.0846 12.4772C9.89968 11.3604 10.2068 10.3293 11.6512 9.39047C13.0902 8.4577 14.8303 8.02924 16.5694 8.17944C18.3086 8.32964 19.9371 9.04902 21.1723 10.2128ZM13.0059 2.51504L14.4462 3.87271C14.8177 4.23489 15.0234 4.72011 15.019 5.22385C15.0146 5.72759 14.8005 6.20956 14.4228 6.56594C14.0451 6.92232 13.5339 7.1246 12.9995 7.12921C12.4651 7.13383 11.9502 6.9404 11.5656 6.5906L10.1239 5.23294C9.81061 4.92703 9.43584 4.68299 9.02144 4.51506C8.60704 4.34714 8.16131 4.25869 7.71026 4.25487C7.25921 4.25106 6.81187 4.33196 6.39434 4.49285C5.97681 4.65374 5.59745 4.8914 5.27841 5.19196C4.95936 5.49252 4.70702 5.84997 4.53609 6.24344C4.36517 6.63692 4.27909 7.05854 4.28289 7.4837C4.28668 7.90887 4.38026 8.32906 4.55818 8.71977C4.73609 9.11048 4.99478 9.46388 5.31914 9.75935L9.64286 13.8349C10.1102 14.2756 10.7038 14.5782 11.3509 14.7056C11.998 14.833 12.6704 14.7797 13.2858 14.5522C13.506 14.4702 13.7098 14.3857 13.9027 14.3011L14.5332 14.0232C15.3757 13.6646 16.0252 13.5109 16.8486 14.287C18.0335 15.4039 17.7264 16.435 16.282 17.3738C14.843 18.3066 13.1029 18.735 11.3637 18.5848C9.62458 18.4346 7.99608 17.7152 6.76083 16.5515L2.43711 12.476C1.7355 11.8234 1.17776 11.0465 0.796002 10.19C0.414243 9.33342 0.216006 8.41415 0.212704 7.48509C0.209402 6.55602 0.401101 5.63552 0.776763 4.77658C1.15242 3.91764 1.70463 3.13723 2.40158 2.48028C3.09853 1.82333 3.92647 1.30282 4.83771 0.948716C5.74895 0.594615 6.72551 0.413919 7.71114 0.417032C8.69677 0.420144 9.67202 0.607004 10.5807 0.966851C11.4894 1.3267 12.3136 1.85371 13.0059 2.51504Z" fill="white"/>
</svg>
